<svg width="1440" height="819" viewBox="0 0 1440 819" fill="none" xmlns="http://www.w3.org/2000/svg">
<path d="M1361 107.5C1463.68 81.5307 1496.97 8.99668e-05 1496.97 8.99668e-05L1496.97 692.172C1496.97 692.172 1420.83 371.185 1337.47 406.172C1305.89 419.428 1249.29 390.979 1185.78 344.927C1118.66 296.259 935.825 412.757 869.5 462.501C777.916 531.188 717.628 537.441 546.053 555.237L543.5 555.502C430.581 567.215 347.363 554.65 235.5 574.002C121.844 593.664 127.968 632.172 43.4677 724.672C-29.075 804.083 -165.42 818.648 -165.42 818.648L-138.5 605.501C-138.5 605.501 -165.774 532.099 -103 462.501C-10.9999 360.501 -24.413 312.333 102 283.673C248 250.572 239.22 390.173 364.5 390.173C505 390.173 570.5 259.002 690 259.002C796.426 259.002 1038.76 272.023 1144 283.672C1275 298.172 1260.81 132.839 1361 107.5Z" fill="#FFF1CD"/>
</svg>
