<svg width="1440" height="1530" viewBox="0 0 1440 1530" fill="none" xmlns="http://www.w3.org/2000/svg">
<path d="M411.5 228.507L147.913 168.691C109.918 160.069 84.6241 124.076 89.3857 85.4072C99.0423 6.98735 -2.62701 -32.144 -48.0395 32.5137L-135.623 157.214C-158.247 189.426 -162.648 231.032 -147.264 267.264L-70.8901 447.135C-33.8649 534.334 44.8822 596.786 138.223 612.975C161.316 616.98 184.821 618.06 208.183 616.187L531.75 590.257L615.138 583.574C689.497 577.615 723.339 674.286 661.5 716.007L618.785 752.086C546.601 813.058 455.163 846.507 360.674 846.507H138.6C-1.81044 846.507 -117.583 956.555 -124.697 1096.78C-133.291 1266.18 18.0036 1399.5 184.976 1369.67L412.5 1329.01L600.418 1282.26C674.584 1263.81 752.484 1267 824.897 1291.44L956.569 1335.88C980.469 1343.95 1003.55 1354.26 1025.51 1366.67L1270.1 1504.95C1358.38 1554.86 1470.33 1525.67 1523 1439.01L1612.4 1240.51C1645.05 1168 1604.31 1083.58 1527.23 1064.04C1469.45 1049.39 1409.22 1076.6 1382.02 1129.63L1366.65 1159.59C1328.09 1234.76 1240.21 1270.26 1160.26 1242.94L891.721 1151.21C789.53 1116.31 728.186 1011.96 747.38 905.694C752.412 877.835 762.812 851.22 778 827.329L793.204 803.415C882.579 662.835 1058.89 605.077 1214.12 665.525L1298.07 698.216C1377.19 729.027 1467.06 709.708 1526.54 649.105C1579.72 594.912 1599.89 516.434 1579.44 443.311L1575.39 428.816C1544.9 319.801 1441.91 247.295 1329 255.354L892.411 286.515C864.547 288.504 836.551 287.569 808.882 283.724L411.5 228.507Z" fill="#C2D7ED"/>
</svg>
