<svg width="41" height="37" viewBox="0 0 41 37" fill="none" xmlns="http://www.w3.org/2000/svg">
<path d="M33.528 10.4738C33.176 10.1218 33 9.68612 33 9.16667V7.33334H31.1667C30.6472 7.33334 30.2121 7.15734 29.8613 6.80534C29.5106 6.45334 29.3346 6.01823 29.3333 5.50001C29.3321 4.98178 29.5081 4.54667 29.8613 4.19467C30.2146 3.84267 30.6497 3.66667 31.1667 3.66667H33V1.83334C33 1.3139 33.176 0.878784 33.528 0.528006C33.88 0.177229 34.3151 0.00122854 34.8333 6.32184e-06C35.3516 -0.0012159 35.7873 0.174784 36.1405 0.528006C36.4937 0.881229 36.6691 1.31634 36.6667 1.83334V3.66667H38.5C39.0194 3.66667 39.4552 3.84267 39.8072 4.19467C40.1592 4.54667 40.3346 4.98178 40.3333 5.50001C40.3321 6.01823 40.1561 6.45395 39.8053 6.80717C39.4546 7.1604 39.0194 7.33578 38.5 7.33334H36.6667V9.16667C36.6667 9.68612 36.4907 10.1218 36.1387 10.4738C35.7867 10.8258 35.3516 11.0012 34.8333 11C34.3151 10.9988 33.88 10.8246 33.528 10.4738ZM18.3333 30.25C20.625 30.25 22.5732 29.4482 24.178 27.8447C25.7828 26.2411 26.5846 24.2929 26.5833 22C26.5821 19.7071 25.7803 17.7595 24.178 16.1572C22.5757 14.5548 20.6274 13.7525 18.3333 13.75C16.0392 13.7476 14.0916 14.55 12.4905 16.1572C10.8894 17.7644 10.087 19.712 10.0833 22C10.0797 24.288 10.8821 26.2362 12.4905 27.8447C14.0989 29.4531 16.0466 30.2549 18.3333 30.25ZM18.3333 26.5833C17.05 26.5833 15.9653 26.1403 15.0792 25.2542C14.1931 24.3681 13.75 23.2833 13.75 22C13.75 20.7167 14.1931 19.632 15.0792 18.7458C15.9653 17.8597 17.05 17.4167 18.3333 17.4167C19.6167 17.4167 20.7014 17.8597 21.5875 18.7458C22.4736 19.632 22.9167 20.7167 22.9167 22C22.9167 23.2833 22.4736 24.3681 21.5875 25.2542C20.7014 26.1403 19.6167 26.5833 18.3333 26.5833ZM3.66667 36.6667C2.65833 36.6667 1.79544 36.308 1.078 35.5905C0.360556 34.8731 0.00122222 34.0096 0 33V11C0 9.99167 0.359333 9.12878 1.078 8.41134C1.79667 7.6939 2.65956 7.33456 3.66667 7.33334H9.44167L11.7333 4.85834C12.0694 4.49167 12.4746 4.2014 12.9488 3.98751C13.4231 3.77362 13.9193 3.66667 14.4375 3.66667H23.8333C24.3528 3.66667 24.7885 3.84267 25.1405 4.19467C25.4925 4.54667 25.6679 4.98178 25.6667 5.50001V8.25001C25.6667 9.0139 25.9343 9.66351 26.4697 10.1988C27.005 10.7342 27.654 11.0012 28.4167 11H29.3333V11.9167C29.3333 12.6806 29.601 13.3302 30.1363 13.8655C30.6717 14.4008 31.3207 14.6679 32.0833 14.6667H34.8333C35.3528 14.6667 35.7885 14.8427 36.1405 15.1947C36.4925 15.5467 36.6679 15.9818 36.6667 16.5V33C36.6667 34.0083 36.3079 34.8718 35.5905 35.5905C34.8731 36.3092 34.0096 36.6679 33 36.6667H3.66667Z" fill="#252422"/>
</svg>
