<svg width="1440" height="610" viewBox="0 0 1440 610" fill="none" xmlns="http://www.w3.org/2000/svg">
<path d="M1308.34 47.6313C1411.02 21.6619 1557.34 -59.8402 1557.34 -59.8402L1455.97 482.673C1455.97 482.673 1379.83 161.685 1296.47 196.673C1226.58 226.006 1179.25 386.238 1108.11 360.068C1041.89 335.706 983.777 317.943 952 316.5C837.073 311.28 552 427 418 388.5C308.89 357.151 229.863 259.649 118 279C4.34389 298.662 86.9682 422.673 2.46808 515.173C-70.0746 594.584 -206.42 609.148 -206.42 609.148L-353.103 326.999C-353.103 326.999 -275.643 218.821 -190.032 180.673C-71.633 127.915 -25.4452 76.2916 100.968 47.6312C246.968 14.5301 138.688 164.173 263.968 164.173C404.468 164.173 553.468 83.1729 672.968 83.1729C779.394 83.1729 956.093 119.197 1061.97 120.673C1165.3 122.113 1208.16 72.9706 1308.34 47.6313Z" fill="#FFF1CD"/>
</svg>
