<svg width="1440" height="682" viewBox="0 0 1440 682" fill="none" xmlns="http://www.w3.org/2000/svg">
<path d="M1385.5 1.0207C1488.18 -24.9487 1665.34 453.078 1665.34 453.078L1564.84 681.577C1564.84 681.577 1275.86 194.17 1215 261.021C1143.17 339.918 1038.45 386.226 937.29 420.15C814.488 461.331 668.226 518.726 580.5 493.52C471.389 462.172 287.363 363.669 175.5 383.021C61.8436 402.682 143.5 487.053 58.9998 579.553C-13.5429 658.964 -171.552 579.553 -171.552 579.553L-318.235 297.404C-318.235 297.404 -248.336 161.259 -155.164 151.078C-4.16418 134.577 -22.8648 57.6789 106.5 49.5206C272.999 39.0203 97.2195 271.077 222.5 271.077C363 271.077 404.5 1.02069 524 1.02069C630.426 1.02068 977.895 80.1345 1056.5 151.078C1195 276.078 1285.31 26.36 1385.5 1.0207Z" fill="#FFF1CD"/>
</svg>
