<svg width="1440" height="349" viewBox="0 0 1440 349" fill="none" xmlns="http://www.w3.org/2000/svg">
<path d="M408.755 243.948C408.647 244.076 408.591 244.241 408.599 244.408C408.607 244.575 408.677 244.734 408.796 244.851C410.047 246.166 411.512 247.257 413.13 248.077C413.239 248.127 413.358 248.148 413.478 248.139C413.597 248.131 413.712 248.091 413.812 248.026C416.019 246.578 418.516 245.629 421.127 245.244C423.739 244.859 426.403 245.048 428.934 245.797C428.993 245.812 429.056 245.812 429.116 245.796C429.176 245.781 429.23 245.751 429.275 245.708C429.316 245.665 429.345 245.611 429.358 245.553C429.372 245.495 429.37 245.434 429.352 245.377C428.746 243.049 427.632 240.883 426.091 239.036C425.864 238.768 425.543 238.599 425.195 238.562C419.103 237.861 412.534 239.394 408.755 243.948Z" fill="#0E3B6A"/>
<path d="M406.587 241.979C406.641 242.07 406.715 242.146 406.803 242.203C406.892 242.26 406.992 242.296 407.097 242.307C407.202 242.321 407.309 242.308 407.408 242.27C407.507 242.232 407.595 242.17 407.664 242.09C409.568 240.175 411.846 238.674 414.356 237.68C416.867 236.687 419.556 236.222 422.254 236.316C422.327 236.312 422.397 236.284 422.454 236.237C422.51 236.189 422.55 236.125 422.566 236.053C422.583 235.982 422.576 235.907 422.546 235.839C422.516 235.772 422.466 235.716 422.401 235.68C419.778 233.998 416.727 233.102 413.61 233.099C410.493 233.096 407.441 233.985 404.814 235.662C404.701 235.733 404.613 235.836 404.559 235.958C404.506 236.08 404.491 236.215 404.515 236.346C404.839 238.339 405.542 240.251 406.587 241.979ZM398.301 244.775C400.828 250.43 405.447 255.314 411.234 256.308C411.399 256.339 411.569 256.307 411.711 256.218C411.853 256.13 411.957 255.991 412.001 255.829C412.507 254.091 412.715 252.279 412.616 250.471C412.612 250.351 412.576 250.234 412.511 250.133C412.446 250.032 412.355 249.95 412.247 249.897C409.886 248.712 407.813 247.026 406.171 244.957C404.529 242.888 403.358 240.485 402.74 237.917C402.726 237.859 402.696 237.805 402.655 237.762C402.614 237.718 402.562 237.685 402.505 237.667C402.447 237.651 402.386 237.65 402.328 237.667C402.27 237.683 402.218 237.714 402.177 237.758C400.449 239.442 399.116 241.489 398.273 243.75C398.155 244.083 398.165 244.449 398.301 244.775Z" fill="#0E3B6A"/>
<path d="M410.654 258.505C410.613 258.407 410.549 258.32 410.468 258.253C410.386 258.185 410.289 258.139 410.186 258.117C404.871 256.953 400.679 253.118 397.914 248.427C397.867 248.375 397.805 248.337 397.736 248.321C397.667 248.305 397.595 248.311 397.529 248.338C397.456 248.354 397.39 248.393 397.342 248.45C397.293 248.507 397.265 248.578 397.261 248.653C397.123 251.769 397.88 254.859 399.444 257.558C401.008 260.257 403.312 262.451 406.084 263.881C406.202 263.942 406.335 263.967 406.468 263.953C406.6 263.939 406.725 263.886 406.828 263.802C408.396 262.526 409.706 260.963 410.689 259.197C410.746 259.089 410.772 258.968 410.766 258.846C410.76 258.724 410.721 258.606 410.654 258.505ZM419.911 247.556C418.148 247.999 416.473 248.734 414.952 249.729C414.854 249.797 414.775 249.89 414.723 249.997C414.671 250.105 414.648 250.225 414.656 250.344C414.8 252.976 414.371 255.609 413.397 258.059C412.424 260.509 410.929 262.718 409.018 264.534C408.976 264.58 408.948 264.635 408.934 264.695C408.92 264.756 408.921 264.818 408.938 264.878C408.945 264.938 408.97 264.994 409.009 265.04C409.048 265.087 409.099 265.121 409.157 265.138C411.485 265.786 413.928 265.905 416.308 265.485C416.653 265.427 416.961 265.239 417.17 264.959C420.827 259.972 422.733 253.503 420.703 247.992C420.647 247.834 420.536 247.703 420.39 247.623C420.244 247.543 420.073 247.519 419.911 247.556Z" fill="#0E3B6A"/>
<path d="M423.495 247.09C423.387 247.093 423.28 247.123 423.185 247.176C423.09 247.229 423.009 247.305 422.95 247.396C422.883 247.478 422.835 247.574 422.811 247.678C422.787 247.781 422.787 247.889 422.811 247.992C424.41 253.138 423.241 258.717 420.616 263.469C420.577 263.532 420.561 263.605 420.569 263.678C420.578 263.751 420.611 263.819 420.662 263.871C420.711 263.925 420.775 263.963 420.846 263.98C420.918 263.997 420.992 263.991 421.06 263.963C423.828 262.527 426.127 260.328 427.684 257.626C429.242 254.924 429.992 251.832 429.847 248.717C429.845 248.585 429.802 248.456 429.725 248.348C429.648 248.241 429.54 248.159 429.415 248.114C427.525 247.4 425.516 247.052 423.495 247.09Z" fill="#0E3B6A"/>
<g clip-path="url(#clip0_1516_11210)">
<path d="M1141.02 257.209C1149.3 253.782 1153.24 244.258 1149.82 235.979C1146.39 227.7 1136.87 223.753 1128.59 227.179C1120.31 230.606 1116.36 240.13 1119.79 248.409C1123.21 256.688 1132.74 260.635 1141.02 257.209ZM1121.61 239.537L1124.88 238.186C1124.98 238.144 1125.09 238.13 1125.2 238.144C1125.3 238.159 1125.41 238.201 1125.49 238.268L1127.49 239.784C1127.62 239.883 1127.7 240.029 1127.73 240.191L1128.44 244.961C1128.46 245.057 1128.45 245.155 1128.42 245.247C1128.39 245.34 1128.34 245.424 1128.27 245.493L1126.6 247.191C1126.52 247.275 1126.41 247.333 1126.3 247.361C1126.19 247.388 1126.07 247.383 1125.96 247.347L1121.88 246.005C1121.78 245.972 1121.69 245.914 1121.62 245.836C1121.55 245.759 1121.5 245.664 1121.47 245.561C1121.01 243.751 1120.93 241.866 1121.23 240.022C1121.25 239.916 1121.29 239.815 1121.36 239.73C1121.42 239.644 1121.51 239.578 1121.61 239.537ZM1144.13 239.927L1141.75 239.907C1141.65 239.906 1141.56 239.883 1141.47 239.839C1141.39 239.795 1141.31 239.731 1141.25 239.653L1138.39 235.771C1138.29 235.64 1138.25 235.475 1138.27 235.312L1138.61 232.838C1138.63 232.729 1138.67 232.626 1138.74 232.54C1138.8 232.453 1138.89 232.385 1138.99 232.343L1142.26 230.992C1142.35 230.951 1142.46 230.936 1142.57 230.948C1142.67 230.961 1142.78 231 1142.86 231.063C1144.38 232.155 1145.65 233.546 1146.61 235.151C1146.66 235.241 1146.69 235.344 1146.7 235.45C1146.7 235.556 1146.68 235.661 1146.63 235.755L1144.7 239.585C1144.64 239.688 1144.56 239.775 1144.46 239.835C1144.36 239.895 1144.25 239.927 1144.13 239.927ZM1128.19 253.901L1127.96 249.652C1127.96 249.565 1127.97 249.479 1128 249.397C1128.03 249.316 1128.08 249.242 1128.14 249.179L1129.9 247.391C1129.98 247.309 1130.08 247.251 1130.19 247.223C1130.31 247.196 1130.42 247.199 1130.53 247.234L1136 248.959C1136.09 248.986 1136.17 249.032 1136.24 249.093C1136.31 249.154 1136.36 249.229 1136.4 249.313L1137.4 251.737C1137.44 251.832 1137.45 251.935 1137.44 252.038C1137.43 252.14 1137.4 252.238 1137.34 252.324L1135.1 255.663C1135.04 255.751 1134.96 255.822 1134.87 255.87C1134.78 255.919 1134.67 255.943 1134.57 255.941C1132.47 255.901 1130.41 255.383 1128.54 254.427C1128.44 254.377 1128.35 254.302 1128.29 254.21C1128.23 254.117 1128.2 254.011 1128.19 253.901ZM1144.11 251.935L1140.16 251.155C1140.06 251.135 1139.97 251.09 1139.89 251.025C1139.81 250.96 1139.75 250.876 1139.71 250.781L1138.71 248.357C1138.67 248.273 1138.65 248.182 1138.66 248.09C1138.66 247.999 1138.69 247.91 1138.73 247.829L1141.38 242.742C1141.43 242.64 1141.51 242.554 1141.61 242.495C1141.71 242.435 1141.82 242.405 1141.94 242.405L1144.45 242.427C1144.54 242.428 1144.63 242.447 1144.71 242.483C1144.78 242.518 1144.86 242.571 1144.91 242.635L1147.75 245.804C1147.83 245.887 1147.88 245.987 1147.9 246.095C1147.92 246.203 1147.92 246.315 1147.88 246.42C1147.23 248.42 1146.14 250.246 1144.68 251.759C1144.61 251.834 1144.52 251.889 1144.42 251.919C1144.32 251.95 1144.21 251.955 1144.11 251.935ZM1133.08 228.814L1135.99 231.812C1136.05 231.88 1136.1 231.962 1136.13 232.052C1136.16 232.142 1136.17 232.238 1136.16 232.332L1135.84 234.662C1135.82 234.771 1135.78 234.874 1135.72 234.961C1135.65 235.048 1135.56 235.116 1135.46 235.158L1129.36 237.681C1129.26 237.722 1129.15 237.737 1129.04 237.722C1128.94 237.708 1128.83 237.665 1128.75 237.598L1126.87 236.175C1126.8 236.118 1126.74 236.044 1126.69 235.959C1126.65 235.874 1126.63 235.781 1126.63 235.686L1126.56 231.515C1126.55 231.413 1126.58 231.312 1126.62 231.221C1126.67 231.13 1126.74 231.052 1126.82 230.993C1128.52 229.786 1130.47 228.979 1132.52 228.633C1132.62 228.616 1132.73 228.624 1132.82 228.655C1132.92 228.687 1133.01 228.741 1133.08 228.814Z" fill="#0E3B6A"/>
</g>
<g clip-path="url(#clip1_1516_11210)">
<path d="M660.931 257.337L666.88 248.072C665.341 248.407 663.928 248.775 662.679 249.283C661.427 249.778 660.697 250.159 660.493 250.514C660.255 250.847 660.21 251.655 660.264 252.988C660.318 254.322 660.586 255.757 660.931 257.337ZM678.798 263.954L669.155 257.762L670.689 255.373L680.332 261.564L678.798 263.954ZM670.54 247.703L662.119 260.819C663.679 264.588 665.852 267.367 668.64 269.169C671.439 270.954 674.87 271.773 678.947 271.623L687.368 258.508C685.807 254.738 683.634 251.96 680.847 250.158C678.059 248.355 674.617 247.554 670.54 247.703ZM688.556 261.989L682.607 271.254C684.145 270.919 685.558 270.552 686.811 270.057C688.06 269.548 688.79 269.167 688.993 268.813C689.231 268.48 689.277 267.672 689.209 266.341C689.14 265.011 688.9 263.57 688.556 261.989Z" fill="#0E3B6A"/>
</g>
<g clip-path="url(#clip2_1516_11210)">
<path d="M892.757 224.607C889.163 222.713 886.61 219.715 885.23 216.233C887.52 215.717 889.671 214.709 891.533 213.281C893.396 211.852 894.926 210.036 896.018 207.958C898.321 203.587 898.434 198.632 896.743 194.38C900.395 193.549 904.312 193.96 907.906 195.853C911.5 197.747 914.053 200.745 915.433 204.227C913.143 204.743 910.992 205.751 909.13 207.179C907.267 208.608 905.737 210.424 904.645 212.502C902.342 216.873 902.23 221.828 903.92 226.08C900.268 226.911 896.352 226.5 892.757 224.607ZM885.955 202.656C887.712 199.32 890.461 196.857 893.661 195.42C894.388 197.183 894.719 199.084 894.63 200.989C894.54 202.894 894.033 204.756 893.143 206.443C891.272 209.994 887.988 212.323 884.344 213.103C883.694 209.539 884.261 205.859 885.955 202.656ZM914.708 217.804C912.951 221.14 910.202 223.604 907.002 225.04C906.275 223.277 905.944 221.376 906.033 219.471C906.123 217.566 906.63 215.704 907.52 214.017C909.391 210.466 912.675 208.137 916.319 207.357C916.969 210.921 916.402 214.601 914.708 217.804Z" fill="#0E3B6A"/>
</g>
<path d="M1346.25 339.699C1350.56 339.699 1354.69 337.987 1357.74 334.94C1360.79 331.892 1362.5 327.759 1362.5 323.449C1362.5 319.139 1360.79 315.006 1357.74 311.959C1354.69 308.911 1350.56 307.199 1346.25 307.199C1341.94 307.199 1337.81 308.911 1334.76 311.959C1331.71 315.006 1330 319.139 1330 323.449C1330 327.759 1331.71 331.892 1334.76 334.94C1337.81 337.987 1341.94 339.699 1346.25 339.699ZM1345.24 312.277C1345.77 312.277 1346.29 312.491 1346.67 312.872C1347.05 313.253 1347.27 313.77 1347.27 314.309C1347.27 314.847 1347.05 315.364 1346.67 315.745C1346.29 316.126 1345.77 316.34 1345.24 316.34C1344.7 316.34 1344.18 316.126 1343.8 315.745C1343.42 315.364 1343.2 314.847 1343.2 314.309C1343.2 313.77 1343.42 313.253 1343.8 312.872C1344.18 312.491 1344.7 312.277 1345.24 312.277ZM1343.2 320.402C1343.2 319.864 1343.42 319.347 1343.8 318.966C1344.18 318.585 1344.7 318.371 1345.24 318.371C1345.77 318.371 1346.29 318.585 1346.67 318.966C1347.05 319.347 1347.27 319.864 1347.27 320.402C1347.27 320.941 1347.05 321.458 1346.67 321.839C1346.29 322.22 1345.77 322.434 1345.24 322.434C1344.7 322.434 1344.18 322.22 1343.8 321.839C1343.42 321.458 1343.2 320.941 1343.2 320.402ZM1339.14 316.34C1339.68 316.34 1340.2 316.554 1340.58 316.935C1340.96 317.316 1341.17 317.832 1341.17 318.371C1341.17 318.91 1340.96 319.426 1340.58 319.807C1340.2 320.188 1339.68 320.402 1339.14 320.402C1338.6 320.402 1338.09 320.188 1337.71 319.807C1337.32 319.426 1337.11 318.91 1337.11 318.371C1337.11 317.832 1337.32 317.316 1337.71 316.935C1338.09 316.554 1338.6 316.34 1339.14 316.34Z" fill="#0E3B6A"/>
<path d="M1533 208.699C1496.5 315.198 1492.5 397.699 1199 273.199L1193.28 270.049C1079.28 207.302 945.302 191.472 819.816 225.921L676.543 265.253C541.687 302.275 397.264 267.78 293.695 173.811C177.681 68.551 11.7113 38.8574 -133.603 97.3634L-201.5 124.7" stroke="#0E3B6A" stroke-dasharray="16 16"/>
<g clip-path="url(#clip3_1516_11210)">
<path d="M40.7162 69.0508C41.4992 72.2729 43.2533 75.1767 45.741 77.3691L50.4986 71.2045C47.6139 69.3072 44.1309 68.5404 40.7162 69.0508ZM51.8261 69.4842C48.4568 67.2171 44.3582 66.2998 40.344 66.9145C39.9337 63.1223 40.8762 59.3072 43.0052 56.1424L54.9864 65.3878L51.8261 69.4842ZM52.214 72.5282C54.7807 74.8375 56.4056 78.0123 56.7777 81.4448C53.4624 81.5044 50.2087 80.5439 47.4572 78.6934L52.214 72.5282ZM53.5415 70.8079L56.7027 66.7122L68.6839 75.9576C66.1622 78.8196 62.7104 80.6988 58.9379 81.2633C58.9256 81.145 58.9117 81.0263 58.8964 80.9074C58.3726 76.843 56.3894 73.3236 53.5415 70.8079ZM44.3289 54.4269C46.8506 51.5649 50.3024 49.6858 54.0749 49.1212C54.0879 49.2405 54.1019 49.3588 54.117 49.4763C54.6147 53.382 56.5182 56.9726 59.4713 59.5766L56.3109 63.6723L44.3289 54.4269ZM58.0256 64.9961L61.1867 60.9004C64.556 63.1674 68.6546 64.0847 72.6688 63.4701C73.0791 67.2622 72.1366 71.0774 70.0076 74.2422L58.0256 64.9961ZM67.2717 53.0148L62.5142 59.1801C65.3989 61.0773 68.8819 61.8441 72.2966 61.3337C71.5136 58.1116 69.7594 55.2072 67.2717 53.0148ZM60.7981 57.8565L65.5563 51.691C62.8046 49.8404 59.5507 48.88 56.2351 48.9397C56.2447 49.0259 56.2552 49.1126 56.2665 49.2C56.6908 52.5353 58.299 55.6073 60.7981 57.8565Z" fill="#0E3B6A"/>
</g>
<defs>
<clipPath id="clip0_1516_11210">
<rect width="40" height="40" fill="white" transform="translate(1161.26 253.16) rotate(157.515)"/>
</clipPath>
<clipPath id="clip1_1516_11210">
<rect width="32" height="32" fill="white" transform="translate(687.977 239.379) rotate(77.7029)"/>
</clipPath>
<clipPath id="clip2_1516_11210">
<rect width="40" height="40" fill="white" transform="translate(908.39 236.234) rotate(-152.218)"/>
</clipPath>
<clipPath id="clip3_1516_11210">
<rect width="36" height="36" fill="white" transform="translate(41.6029 84.5058) rotate(-97.3441)"/>
</clipPath>
</defs>
</svg>
