<svg width="24" height="24" viewBox="0 0 24 24" fill="none" xmlns="http://www.w3.org/2000/svg">
<path d="M19 12.59V10C19 6.78 16.82 4.07 13.86 3.26C13.57 2.52 12.85 2 12 2C11.15 2 10.44 2.52 10.14 3.26C7.18002 4.08 5.00002 6.79 5.00002 10V12.59L3.29002 14.3C3.19734 14.3934 3.12401 14.5043 3.07425 14.6261C3.02448 14.7479 2.99926 14.8784 3.00002 15.01V17.01C3.00002 17.56 3.45002 18.01 4.00002 18.01H20C20.55 18.01 21 17.56 21 17.01V15.01C21 14.74 20.89 14.49 20.71 14.3L19 12.59ZM19 16H5.00002V15.41L6.71002 13.7C6.8027 13.6066 6.87602 13.4957 6.92579 13.3739C6.97555 13.2521 7.00078 13.1216 7.00002 12.99V9.99C7.00002 7.23 9.24002 4.99 12 4.99C14.76 4.99 17 7.23 17 9.99V12.99C17 13.26 17.11 13.51 17.29 13.7L19 15.41V16ZM14.82 20H9.18002C9.59002 21.17 10.69 22 12 22C13.31 22 14.41 21.17 14.82 20Z" fill="currentColor"/>
</svg>
