<svg width="24" height="24" viewBox="0 0 24 24" fill="none" xmlns="http://www.w3.org/2000/svg">
<path d="M12 8C9.83 8 8 9.83 8 12C8 14.17 9.83 16 12 16C14.17 16 16 14.17 16 12C16 9.83 14.17 8 12 8ZM12 14C10.93 14 10 13.07 10 12C10 10.93 10.93 10 12 10C13.07 10 14 10.93 14 12C14 13.07 13.07 14 12 14Z" fill="currentColor"/>
<path d="M20 4.99999H17.41L14.7 2.28999C14.6066 2.1973 14.4958 2.12398 14.3739 2.07421C14.2521 2.02445 14.1216 1.99923 13.99 1.99999H9.99001C9.72001 1.99999 9.47001 2.10999 9.28001 2.28999L6.57001 4.99999H3.98001C2.88001 4.99999 1.98001 5.89999 1.98001 6.99999V18C1.98001 19.1 2.88001 20 3.98001 20H19.98C21.08 20 21.98 19.1 21.98 18V6.99999C21.98 5.89999 21.08 4.99999 19.98 4.99999H20ZM20 18H4.00001V6.99999H7.00001C7.27001 6.99999 7.52001 6.88999 7.71001 6.70999L10.42 3.99999H13.59L16.3 6.70999C16.49 6.89999 16.74 6.99999 17.01 6.99999H20.01V18H20Z" fill="currentColor"/>
</svg>
