<svg width="24" height="24" viewBox="0 0 24 24" fill="none" xmlns="http://www.w3.org/2000/svg">
<path d="M2.6 10.42L10.24 13.76L13.58 21.4C13.74 21.77 14.1 22 14.5 22H14.55C14.7522 21.9896 14.9466 21.9181 15.1073 21.7949C15.268 21.6717 15.3875 21.5026 15.45 21.31L20.95 4.31C21.07 3.95 20.97 3.56 20.71 3.3C20.581 3.16943 20.418 3.07771 20.2394 3.03528C20.0608 2.99285 19.8739 3.00141 19.7 3.06L2.69 8.55C2.29 8.68 2.02 9.04 2 9.45C1.98 9.87 2.22 10.25 2.6 10.42ZM18.45 5.56L14.36 18.19L11.92 12.6C11.82 12.37 11.64 12.19 11.4 12.08L5.81 9.64L18.44 5.55L18.45 5.56Z" fill="currentColor"/>
</svg>
