<svg width="1440" height="883" viewBox="0 0 1440 883" fill="none" xmlns="http://www.w3.org/2000/svg">
<path d="M1216.5 386.802C1344.54 356.024 1346.47 416.671 1315.45 486.163C1273.34 580.488 1272.48 694.55 1345.67 767.443L1461 882.301L1461 70.3019C1461 70.3019 1271 78.816 1253.57 67.2966C1237.18 56.464 1219.99 49.8015 1202.5 49.8015C911.886 49.8015 906.362 89.7503 737.5 49.8016C141.5 -91.1984 231.3 121.065 157.5 34.8018C84.9293 -50.0245 136.5 142.302 51.9994 49.8015C-20.5432 -29.6092 -54.9299 296.414 -54.9299 296.414L-260.501 317.802C-260.501 317.802 -114.279 611.976 -82.5006 523.802C-27.4768 371.128 -5.41367 479.141 121 507.802C266.999 540.903 194 370.302 179.5 317.802C106.9 54.9486 488 143.302 590.5 157.302C695.946 171.704 1095.98 105.802 1188.5 157.302C1290 213.802 1134.66 406.475 1216.5 386.802Z" fill="#C2D7ED"/>
</svg>
