<svg width="1440" height="639" viewBox="0 0 1440 639" fill="none" xmlns="http://www.w3.org/2000/svg">
<path d="M1316.38 77.4584C1419.05 51.489 1565.37 -30.013 1565.37 -30.013L1464 512.5C1464 512.5 1387.86 191.512 1304.5 226.5C1237 254.829 1153.86 365.808 1082.1 351.337C1007.73 336.34 929.374 322.606 882.999 320.5C768.072 315.28 595.5 400.5 461.5 362C352.389 330.651 220.863 312.149 108.999 331.5C-4.6566 351.162 94.9997 452.5 10.4996 545C-62.0431 624.411 -198.388 638.976 -198.388 638.976L-345.072 356.827C-345.072 356.827 -267.612 248.648 -182 210.5C-63.6015 157.742 -17.4137 106.119 109 77.4583C255 44.3572 146.719 194 272 194C412.5 194 561.5 113 681 113C787.425 113 964.125 149.024 1070 150.5C1173.33 151.94 1216.19 102.798 1316.38 77.4584Z" fill="#FFF1CD"/>
</svg>