<svg width="1440" height="1956" viewBox="0 0 1440 1956" fill="none" xmlns="http://www.w3.org/2000/svg">
<path d="M1192.03 807.376C1222.78 784.46 1249.45 757.449 1272.42 729.02C1329.62 658.219 1469.83 651.977 1508.5 734.375L1657.26 1264.08C1657.26 1264.08 1630.48 1207.2 1590.11 1126.16C1410.53 765.653 1255.64 842.522 1204.91 1242.07C1201.12 1271.9 1196.85 1298.46 1192.03 1320.41C1160.98 1461.74 877.191 651.559 433.434 1200.58C81.4338 1636.08 229.364 1000.23 117.501 1019.58C3.84443 1039.24 -11.5662 1308.08 -96.0662 1400.58C-168.609 1479.99 -249.591 1602.56 -249.591 1602.56L-396.274 1320.41C-396.274 1320.41 -126.678 651.73 -41.0671 613.582C77.3319 560.825 -38.5864 935.57 87.8267 906.91C233.827 873.809 215.72 1045.88 341 1045.88C481.5 1045.88 419.933 694.082 530.433 630.582C622.708 577.556 746.726 790.197 833.5 850.875C971.5 947.375 1133.05 851.32 1192.03 807.376Z" fill="#C2D7ED"/>
<path d="M116.122 1091.34C116.251 1091.19 116.316 1090.99 116.306 1090.79C116.296 1090.59 116.21 1090.4 116.066 1090.26C114.557 1088.69 112.791 1087.39 110.844 1086.42C110.713 1086.36 110.57 1086.34 110.427 1086.35C110.283 1086.36 110.146 1086.41 110.026 1086.49C107.387 1088.24 104.398 1089.39 101.267 1089.87C98.1356 1090.35 94.9376 1090.14 91.8952 1089.26C91.8234 1089.24 91.7482 1089.24 91.6767 1089.26C91.6052 1089.28 91.5395 1089.32 91.4859 1089.37C91.4373 1089.42 91.4033 1089.49 91.3875 1089.56C91.3717 1089.63 91.3746 1089.7 91.3959 1089.77C92.1391 1092.56 93.4901 1095.15 95.352 1097.36C95.6256 1097.67 96.0116 1097.88 96.4298 1097.92C103.745 1098.72 111.617 1096.83 116.122 1091.34Z" fill="#0E3B6A"/>
<path d="M118.737 1093.69C118.672 1093.59 118.582 1093.49 118.475 1093.43C118.369 1093.36 118.248 1093.32 118.122 1093.3C117.996 1093.29 117.868 1093.3 117.749 1093.35C117.631 1093.4 117.526 1093.47 117.443 1093.57C115.172 1095.88 112.448 1097.7 109.442 1098.9C106.436 1100.11 103.213 1100.69 99.9745 1100.59C99.8864 1100.6 99.8024 1100.63 99.7351 1100.69C99.6679 1100.75 99.621 1100.83 99.6015 1100.91C99.582 1101 99.591 1101.09 99.6271 1101.17C99.6632 1101.25 99.7244 1101.32 99.8016 1101.36C102.961 1103.36 106.628 1104.41 110.368 1104.4C114.108 1104.38 117.765 1103.29 120.907 1101.26C121.041 1101.18 121.147 1101.05 121.21 1100.91C121.273 1100.76 121.291 1100.6 121.261 1100.44C120.859 1098.05 120.002 1095.76 118.737 1093.69ZM128.661 1090.28C125.591 1083.51 120.015 1077.68 113.064 1076.53C112.867 1076.49 112.662 1076.53 112.492 1076.64C112.322 1076.75 112.199 1076.92 112.147 1077.11C111.552 1079.2 111.314 1081.37 111.445 1083.54C111.45 1083.69 111.495 1083.83 111.573 1083.95C111.652 1084.07 111.762 1084.17 111.892 1084.23C114.732 1085.64 117.232 1087.65 119.216 1090.12C121.2 1092.59 122.621 1095.46 123.38 1098.54C123.398 1098.61 123.433 1098.68 123.483 1098.73C123.533 1098.78 123.595 1098.82 123.663 1098.84C123.733 1098.86 123.807 1098.86 123.876 1098.84C123.945 1098.82 124.008 1098.78 124.057 1098.73C126.119 1096.7 127.705 1094.23 128.701 1091.51C128.841 1091.11 128.827 1090.67 128.661 1090.28Z" fill="#0E3B6A"/>
<path d="M113.745 1073.89C113.795 1074.01 113.872 1074.11 113.971 1074.19C114.069 1074.27 114.185 1074.33 114.31 1074.35C120.696 1075.71 125.752 1080.29 129.101 1085.9C129.158 1085.96 129.233 1086.01 129.315 1086.02C129.398 1086.04 129.485 1086.04 129.563 1086C129.65 1085.98 129.729 1085.94 129.787 1085.87C129.845 1085.8 129.879 1085.71 129.883 1085.62C130.028 1081.88 129.098 1078.18 127.204 1074.95C125.309 1071.72 122.53 1069.11 119.194 1067.41C119.052 1067.34 118.891 1067.31 118.733 1067.33C118.574 1067.34 118.424 1067.41 118.301 1067.51C116.428 1069.05 114.866 1070.93 113.699 1073.06C113.631 1073.19 113.6 1073.34 113.608 1073.48C113.617 1073.63 113.664 1073.77 113.745 1073.89ZM102.711 1087.09C104.823 1086.55 106.828 1085.65 108.646 1084.45C108.764 1084.37 108.858 1084.26 108.919 1084.13C108.981 1084 109.008 1083.85 108.998 1083.71C108.807 1080.55 109.305 1077.39 110.457 1074.44C111.609 1071.5 113.387 1068.84 115.669 1066.65C115.718 1066.59 115.752 1066.52 115.769 1066.45C115.785 1066.38 115.783 1066.3 115.762 1066.23C115.753 1066.16 115.723 1066.09 115.676 1066.04C115.629 1065.98 115.567 1065.94 115.498 1065.92C112.7 1065.16 109.767 1065.03 106.914 1065.55C106.501 1065.62 106.132 1065.85 105.883 1066.19C101.528 1072.2 99.2842 1079.97 101.757 1086.57C101.825 1086.76 101.96 1086.92 102.136 1087.01C102.312 1087.11 102.516 1087.14 102.711 1087.09Z" fill="#0E3B6A"/>
<path d="M98.4125 1087.67C98.5431 1087.67 98.6705 1087.63 98.7841 1087.57C98.8977 1087.5 98.9942 1087.41 99.0653 1087.3C99.1453 1087.2 99.2015 1087.09 99.2296 1086.96C99.2577 1086.84 99.2569 1086.71 99.2274 1086.59C97.275 1080.42 98.6404 1073.72 101.758 1068C101.804 1067.92 101.823 1067.84 101.813 1067.75C101.802 1067.66 101.762 1067.58 101.7 1067.52C101.641 1067.45 101.564 1067.41 101.478 1067.39C101.393 1067.37 101.303 1067.38 101.222 1067.41C97.91 1069.15 95.1661 1071.81 93.3154 1075.06C91.4646 1078.31 90.5846 1082.03 90.7793 1085.76C90.783 1085.92 90.835 1086.08 90.9285 1086.21C91.0219 1086.33 91.1523 1086.43 91.3023 1086.48C93.5753 1087.33 95.9884 1087.73 98.4125 1087.67Z" fill="#0E3B6A"/>
<g clip-path="url(#clip0_1516_11209)">
<path d="M378.218 1192.91C369.958 1196.38 366.063 1205.93 369.536 1214.19C373.009 1222.45 382.554 1226.34 390.814 1222.87C399.074 1219.4 402.969 1209.85 399.496 1201.59C396.023 1193.33 386.477 1189.44 378.218 1192.91ZM397.721 1210.47L394.465 1211.84C394.364 1211.89 394.253 1211.9 394.145 1211.89C394.036 1211.87 393.933 1211.83 393.846 1211.77L391.846 1210.26C391.714 1210.16 391.627 1210.02 391.602 1209.85L390.858 1205.09C390.843 1204.99 390.85 1204.89 390.88 1204.8C390.909 1204.71 390.96 1204.63 391.028 1204.56L392.691 1202.85C392.772 1202.76 392.875 1202.71 392.988 1202.68C393.101 1202.65 393.22 1202.65 393.331 1202.69L397.414 1204.01C397.514 1204.04 397.605 1204.1 397.677 1204.18C397.75 1204.25 397.801 1204.35 397.827 1204.45C398.295 1206.26 398.387 1208.14 398.098 1209.99C398.083 1210.09 398.04 1210.19 397.974 1210.28C397.908 1210.37 397.821 1210.43 397.721 1210.47ZM375.196 1210.21L377.58 1210.22C377.677 1210.22 377.773 1210.24 377.86 1210.28C377.946 1210.33 378.022 1210.39 378.08 1210.47L380.964 1214.33C381.063 1214.46 381.106 1214.63 381.084 1214.79L380.757 1217.27C380.744 1217.38 380.702 1217.48 380.636 1217.57C380.57 1217.65 380.482 1217.72 380.381 1217.77L377.124 1219.13C377.026 1219.18 376.918 1219.19 376.812 1219.18C376.706 1219.17 376.605 1219.13 376.518 1219.07C374.997 1217.98 373.715 1216.6 372.75 1215C372.695 1214.91 372.664 1214.81 372.659 1214.7C372.654 1214.6 372.677 1214.49 372.724 1214.4L374.637 1210.56C374.689 1210.45 374.769 1210.36 374.868 1210.3C374.966 1210.24 375.08 1210.21 375.196 1210.21ZM391.059 1196.15L391.313 1200.39C391.319 1200.48 391.306 1200.57 391.276 1200.65C391.247 1200.73 391.2 1200.81 391.14 1200.87L389.389 1202.67C389.309 1202.75 389.207 1202.81 389.096 1202.84C388.984 1202.86 388.867 1202.86 388.757 1202.83L383.276 1201.13C383.189 1201.11 383.108 1201.06 383.04 1201C382.972 1200.94 382.918 1200.86 382.882 1200.78L381.866 1198.36C381.826 1198.27 381.81 1198.16 381.82 1198.06C381.829 1197.96 381.864 1197.86 381.921 1197.78L384.141 1194.42C384.199 1194.34 384.278 1194.26 384.371 1194.22C384.464 1194.17 384.567 1194.14 384.672 1194.14C386.773 1194.17 388.839 1194.68 390.714 1195.62C390.813 1195.67 390.897 1195.75 390.957 1195.84C391.017 1195.93 391.052 1196.04 391.059 1196.15ZM375.154 1198.2L379.103 1198.96C379.204 1198.98 379.299 1199.02 379.379 1199.09C379.459 1199.15 379.521 1199.24 379.561 1199.33L380.578 1201.75C380.613 1201.83 380.63 1201.92 380.626 1202.02C380.623 1202.11 380.599 1202.2 380.558 1202.28L377.935 1207.38C377.882 1207.48 377.802 1207.57 377.704 1207.63C377.606 1207.69 377.493 1207.72 377.377 1207.72L374.864 1207.71C374.777 1207.71 374.691 1207.69 374.611 1207.66C374.532 1207.62 374.46 1207.57 374.402 1207.51L371.545 1204.35C371.471 1204.27 371.419 1204.17 371.396 1204.06C371.373 1203.96 371.379 1203.84 371.414 1203.74C372.05 1201.73 373.134 1199.9 374.585 1198.38C374.657 1198.31 374.747 1198.25 374.847 1198.22C374.946 1198.19 375.052 1198.18 375.154 1198.2ZM386.316 1221.26L383.391 1218.28C383.324 1218.21 383.273 1218.13 383.243 1218.04C383.213 1217.95 383.204 1217.85 383.216 1217.76L383.521 1215.43C383.535 1215.32 383.577 1215.22 383.643 1215.13C383.709 1215.04 383.797 1214.97 383.898 1214.93L389.979 1212.37C390.08 1212.33 390.19 1212.32 390.299 1212.33C390.408 1212.34 390.511 1212.39 390.598 1212.45L392.478 1213.87C392.554 1213.92 392.616 1214 392.66 1214.08C392.703 1214.17 392.727 1214.26 392.728 1214.35L392.822 1218.52C392.824 1218.63 392.801 1218.73 392.755 1218.82C392.71 1218.91 392.642 1218.99 392.559 1219.05C390.868 1220.26 388.923 1221.08 386.87 1221.44C386.77 1221.46 386.667 1221.45 386.571 1221.42C386.474 1221.39 386.387 1221.33 386.316 1221.26Z" fill="#0E3B6A"/>
</g>
<g clip-path="url(#clip1_1516_11209)">
<path d="M90.6583 1314.62L76.5641 1323.23C78.8597 1323.78 81.0072 1324.21 83.0262 1324.34C85.0401 1324.5 86.2748 1324.46 86.7818 1324.11C87.3207 1323.82 87.9114 1322.76 88.7114 1320.93C89.5114 1319.09 90.0885 1316.98 90.6583 1314.62ZM70.8775 1293.99L79.8381 1308.66L76.2034 1310.88L67.2428 1296.21L70.8775 1293.99ZM71.3833 1321.33L91.3349 1309.14C91.6963 1303.03 90.5832 1297.86 88.0008 1293.6C85.3921 1289.36 81.2981 1286.01 75.6976 1283.54L55.746 1295.73C55.3846 1301.84 56.4976 1307.01 59.0801 1311.27C61.6626 1315.53 65.7828 1318.86 71.3833 1321.33ZM56.4226 1290.26L70.5168 1281.65C68.2212 1281.09 66.0737 1280.66 64.0598 1280.51C62.0408 1280.38 60.8061 1280.41 60.2991 1280.76C59.7602 1281.05 59.1695 1282.11 58.3906 1283.95C57.6116 1285.79 56.9924 1287.9 56.4226 1290.26Z" fill="#0E3B6A"/>
</g>
<path d="M417.442 1045.47C414.146 1045.84 411.042 1047.2 408.549 1049.39L414.055 1054.9C416.306 1052.28 417.512 1048.92 417.442 1045.47ZM415.592 1056.43C418.271 1053.38 419.705 1049.44 419.608 1045.38C423.422 1045.45 427.085 1046.88 429.952 1049.39L419.251 1060.09L415.592 1056.43ZM412.523 1056.43C409.905 1058.68 406.548 1059.89 403.096 1059.82C403.461 1056.52 404.83 1053.42 407.017 1050.92L412.523 1056.43ZM414.06 1057.97L417.718 1061.63L407.017 1072.33C404.5 1069.46 403.078 1065.8 403 1061.98C403.119 1061.99 403.239 1061.99 403.359 1061.99C407.457 1061.99 411.201 1060.47 414.06 1057.97ZM431.484 1050.92C434 1053.79 435.423 1057.45 435.5 1061.27C435.38 1061.27 435.261 1061.26 435.143 1061.26C431.205 1061.26 427.401 1062.69 424.441 1065.28L420.783 1061.63L431.484 1050.92ZM419.251 1063.16L422.909 1066.82C420.23 1069.87 418.796 1073.82 418.892 1077.88C415.079 1077.8 411.415 1076.38 408.549 1073.86L419.251 1063.16ZM429.952 1073.86L424.445 1068.35C422.195 1070.97 420.989 1074.33 421.059 1077.78C424.354 1077.41 427.459 1076.05 429.952 1073.86ZM425.977 1066.82L431.484 1072.33C433.671 1069.83 435.04 1066.73 435.404 1063.43C435.317 1063.43 435.23 1063.43 435.142 1063.43C431.78 1063.43 428.527 1064.63 425.977 1066.82Z" fill="#0E3B6A"/>
<g clip-path="url(#clip2_1516_11209)">
<path d="M276.954 1273.92C280.558 1275.79 283.128 1278.77 284.527 1282.25C282.24 1282.78 280.095 1283.8 278.241 1285.23C276.386 1286.67 274.866 1288.5 273.785 1290.58C271.507 1294.97 271.422 1299.92 273.137 1304.16C269.489 1305.01 265.571 1304.63 261.966 1302.75C258.361 1300.88 255.791 1297.9 254.392 1294.42C256.679 1293.89 258.824 1292.87 260.679 1291.43C262.534 1289.99 264.054 1288.17 265.134 1286.09C267.412 1281.7 267.497 1276.75 265.783 1272.5C269.43 1271.65 273.349 1272.04 276.954 1273.92ZM283.879 1295.83C282.14 1299.17 279.405 1301.65 276.213 1303.11C275.476 1301.35 275.134 1299.45 275.213 1297.54C275.292 1295.64 275.789 1293.77 276.669 1292.08C278.52 1288.52 281.791 1286.17 285.431 1285.37C286.101 1288.93 285.554 1292.62 283.879 1295.83ZM255.041 1280.84C256.78 1277.5 259.515 1275.02 262.706 1273.56C263.444 1275.32 263.785 1277.22 263.706 1279.13C263.628 1281.03 263.13 1282.9 262.25 1284.59C260.399 1288.15 257.128 1290.5 253.489 1291.3C252.819 1287.74 253.365 1284.05 255.041 1280.84Z" fill="#0E3B6A"/>
</g>
<path d="M258.25 1005.88C262.56 1005.88 266.693 1004.16 269.741 1001.12C272.788 998.069 274.5 993.935 274.5 989.625C274.5 985.316 272.788 981.182 269.741 978.135C266.693 975.088 262.56 973.375 258.25 973.375C253.94 973.375 249.807 975.088 246.76 978.135C243.712 981.182 242 985.316 242 989.625C242 993.935 243.712 998.069 246.76 1001.12C249.807 1004.16 253.94 1005.88 258.25 1005.88ZM257.235 978.454C257.773 978.454 258.29 978.668 258.671 979.049C259.052 979.429 259.266 979.946 259.266 980.485C259.266 981.024 259.052 981.54 258.671 981.921C258.29 982.302 257.773 982.516 257.235 982.516C256.696 982.516 256.179 982.302 255.798 981.921C255.417 981.54 255.203 981.024 255.203 980.485C255.203 979.946 255.417 979.429 255.798 979.049C256.179 978.668 256.696 978.454 257.235 978.454ZM255.203 986.579C255.203 986.04 255.417 985.523 255.798 985.142C256.179 984.761 256.696 984.547 257.235 984.547C257.773 984.547 258.29 984.761 258.671 985.142C259.052 985.523 259.266 986.04 259.266 986.579C259.266 987.117 259.052 987.634 258.671 988.015C258.29 988.396 257.773 988.61 257.235 988.61C256.696 988.61 256.179 988.396 255.798 988.015C255.417 987.634 255.203 987.117 255.203 986.579ZM251.141 982.516C251.68 982.516 252.196 982.73 252.577 983.111C252.958 983.492 253.172 984.009 253.172 984.547C253.172 985.086 252.958 985.603 252.577 985.984C252.196 986.365 251.68 986.579 251.141 986.579C250.602 986.579 250.085 986.365 249.705 985.984C249.324 985.603 249.11 985.086 249.11 984.547C249.11 984.009 249.324 983.492 249.705 983.111C250.085 982.73 250.602 982.516 251.141 982.516Z" fill="#0E3B6A"/>
<path d="M-183 1117.88C-11.1732 1117.88 90.3868 1093.57 135.591 1071.58C153.769 1062.73 168.991 1048.59 185.696 1037.21L242.749 998.332C287.485 967.85 347.277 971.964 387.416 1008.29C425.04 1042.34 436.487 1096.72 415.779 1143.05L401.733 1174.47C389.478 1201.88 369.959 1225.43 345.288 1242.55L316.681 1262.4C239.432 1316 140.963 1328.76 52.604 1296.61L-183 1210.88" stroke="#0E3B6A" stroke-dasharray="16 16"/>
<defs>
<clipPath id="clip0_1516_11209">
<rect width="40" height="40" fill="white" transform="translate(358 1197.07) rotate(-22.8043)"/>
</clipPath>
<clipPath id="clip1_1516_11209">
<rect width="48" height="48" fill="white" transform="translate(43.0083 1321.29) rotate(-76.4181)"/>
</clipPath>
<clipPath id="clip2_1516_11209">
<rect width="40" height="40" fill="white" transform="translate(261.256 1262.38) rotate(27.4622)"/>
</clipPath>
</defs>
</svg>
