<svg width="24" height="24" viewBox="0 0 24 24" fill="none" xmlns="http://www.w3.org/2000/svg">
<path d="M12 2C6.49 2 2 6.49 2 12C2 17.51 6.49 22 12 22C17.51 22 22 17.51 22 12C22 6.49 17.51 2 12 2ZM12 20C7.59 20 4 16.41 4 12C4 7.59 7.59 4 12 4C16.41 4 20 7.59 20 12C20 16.41 16.41 20 12 20Z" fill="#0E3B6A"/>
<path d="M11.2471 15.3314H12.7758V17H11.2471V15.3314ZM12.9822 7.19694C11.3924 6.57121 9.56561 7.48895 9 9.20761L10.4369 9.77494C10.5745 9.35779 10.865 9.02406 11.2548 8.83217C11.6446 8.64029 12.0803 8.61526 12.4624 8.76543C12.7548 8.88205 13.0079 9.09288 13.188 9.37C13.3682 9.64712 13.467 9.97745 13.4713 10.3172C13.4713 11.1849 12.2025 11.869 11.7592 12.0442C11.4535 12.161 11.2471 12.4781 11.2471 12.8285V13.6628H12.7758V13.3791C13.5707 12.9536 15 11.9692 15 10.3089C14.9934 9.62776 14.7968 8.965 14.4362 8.409C14.0757 7.853 13.5685 7.43018 12.9822 7.19694Z" fill="#0E3B6A"/>
</svg>
