<svg width="20" height="20" viewBox="0 0 20 20" fill="none" xmlns="http://www.w3.org/2000/svg">
<path d="M17.9583 3.07532C17.725 2.92532 17.425 2.90032 17.1667 3.00866C15.0833 3.90866 12.9333 3.24199 10.6583 2.54199C8.19167 1.78366 5.64167 1.00032 3 2.14199C2.69167 2.27532 2.5 2.57532 2.5 2.90866V18.342H4.16667V12.667C6.09167 12.0587 8.075 12.667 10.175 13.3087C11.75 13.792 13.35 14.2837 14.9917 14.2837C15.925 14.2837 16.875 14.1253 17.8333 13.7087C18.1417 13.5753 18.3333 13.2753 18.3333 12.942V3.76699C18.3333 3.48366 18.1917 3.22532 17.9583 3.06699V3.07532ZM13.5167 12.4587C13.6417 12.4753 13.7583 12.5003 13.8833 12.517C13.7583 12.5003 13.6417 12.4837 13.5167 12.4587ZM16.675 7.39199C15.8417 7.61699 15.0083 7.65032 14.175 7.55866V10.0587C15.0083 10.142 15.8417 10.1087 16.675 9.89199V12.3587C15.8583 12.617 15.025 12.642 14.175 12.5503V10.067C13.3417 9.98366 12.5083 9.78366 11.675 9.55032V12.017C11.3417 11.917 11.0083 11.817 10.6667 11.717C10.175 11.567 9.675 11.417 9.175 11.2753V8.80032C8.34167 8.56699 7.50833 8.36699 6.675 8.28366V10.7837C6.71667 10.7837 6.75833 10.8003 6.8 10.8003C6.48333 10.767 6.16667 10.7337 5.85 10.7337C5.29167 10.7337 4.73333 10.792 4.175 10.9253V8.45032C5.00833 8.22532 5.84167 8.19199 6.675 8.28366V5.78366C5.84167 5.70032 5.00833 5.73366 4.175 5.95032V3.48366C4.99167 3.22532 5.825 3.20032 6.675 3.29199V5.77532C7.50833 5.85866 8.34167 6.05866 9.175 6.29199V3.82532C9.50833 3.92532 9.84167 4.02532 10.1833 4.12532C10.675 4.27532 11.175 4.43366 11.675 4.56699V7.03366C12.5083 7.26699 13.3417 7.46699 14.175 7.55032V5.05866C15 5.13366 15.8333 5.10866 16.675 4.90866V7.38366V7.39199Z" fill="#252422"/>
<path d="M9.16663 6.29199V8.79199C9.99996 9.02533 10.8333 9.30866 11.6666 9.54199V7.04199C10.8333 6.80866 9.99996 6.52533 9.16663 6.29199Z" fill="#252422"/>
</svg>
