<svg width="20" height="20" viewBox="0 0 20 20" fill="none" xmlns="http://www.w3.org/2000/svg">
<path d="M8.2334 15.2996C7.76464 15.7678 7.12923 16.0308 6.46673 16.0308C5.80423 16.0308 5.16881 15.7678 4.70006 15.2996C4.23189 14.8309 3.96893 14.1955 3.96893 13.533C3.96893 12.8705 4.23189 12.2351 4.70006 11.7663L7.0584 9.40797L5.8834 8.23297L3.52506 10.5913C2.74454 11.373 2.30615 12.4325 2.30615 13.5371C2.30615 14.6418 2.74454 15.7013 3.52506 16.483C4.34173 17.2913 5.40006 17.6996 6.47506 17.6996C7.55006 17.6996 8.6084 17.2913 9.42506 16.483L11.7834 14.1246L10.6084 12.9496L8.25006 15.308L8.2334 15.2996ZM10.5917 3.51631L8.2334 5.87464L9.4084 7.04964L11.7667 4.69131C12.2355 4.22314 12.8709 3.96017 13.5334 3.96017C14.1959 3.96017 14.8313 4.22314 15.3001 4.69131C15.7682 5.16006 16.0312 5.79547 16.0312 6.45797C16.0312 7.12047 15.7682 7.75589 15.3001 8.22464L12.9417 10.583L14.1167 11.758L16.4751 9.39964C17.2556 8.61795 17.694 7.55845 17.694 6.4538C17.694 5.34916 17.2556 4.28966 16.4751 3.50797C15.6934 2.72745 14.6339 2.28906 13.5292 2.28906C12.4246 2.28906 11.3651 2.72745 10.5834 3.50797L10.5917 3.51631Z" fill="#0E3B6A"/>
<path d="M14.125 7.05L13.5333 6.46667L12.95 5.875L9.40833 9.40833L5.875 12.95L6.46667 13.5333L7.05 14.125L10.5917 10.5917L14.125 7.05Z" fill="#0E3B6A"/>
</svg>
