<svg width="24" height="24" viewBox="0 0 24 24" fill="none" xmlns="http://www.w3.org/2000/svg">
<path d="M20.24 4.76C17.94 2.47 14.37 2.41 12 4.57C9.63 2.41 6.07 2.48 3.76 4.77C1.4 7.14 1.4 10.84 3.76 13.2L11.29 20.72C11.49 20.91 11.74 21.01 12 21.01C12.26 21.01 12.51 20.91 12.71 20.72L20.24 13.2C22.6 10.84 22.6 7.14 20.24 4.77V4.76ZM18.83 11.78L12.01 18.59L5.19 11.78C4.81749 11.415 4.52155 10.9794 4.31952 10.4986C4.11749 10.0178 4.01343 9.50151 4.01343 8.98C4.01343 8.45849 4.11749 7.94221 4.31952 7.46142C4.52155 6.98063 4.81749 6.54498 5.19 6.18C5.98 5.39 6.99 5 8 5C9.01 5 10.02 5.39 10.8 6.18L11.3 6.68C11.69 7.07 12.32 7.07 12.71 6.68L13.21 6.18C14.78 4.61 17.25 4.61 18.83 6.18C20.4 7.76 20.4 10.22 18.83 11.78Z" fill="currentColor"/>
<path d="M12.8571 9H11.1429V11.1429H9V12.8571H11.1429V15H12.8571V12.8571H15V11.1429H12.8571V9Z" fill="currentColor"/>
</svg>
