<svg width="24" height="24" viewBox="0 0 24 24" fill="none" xmlns="http://www.w3.org/2000/svg">
<path d="M11 15H13V17H11V15ZM9.53 8.02999C8.87 8.68999 8.5 9.56999 8.5 10.5H10.5C10.5 10.1 10.66 9.71999 10.94 9.43999C11.51 8.86999 12.49 8.86999 13.06 9.43999C13.27 9.64957 13.4131 9.91677 13.4711 10.2077C13.5292 10.4987 13.4996 10.8003 13.3861 11.0745C13.2726 11.3486 13.0803 11.5829 12.8335 11.7476C12.5868 11.9124 12.2967 12.0002 12 12C11.45 12 11 12.45 11 13V14H13V13.86C13.55 13.7 14.06 13.4 14.47 12.98C15.13 12.32 15.5 11.44 15.5 10.51C15.5 9.57999 15.14 8.69999 14.47 8.03999C13.15 6.71999 10.84 6.71999 9.52 8.03999L9.53 8.02999Z" fill="currentColor"/>
<path d="M12 2C6.49 2 2 6.49 2 12C2 14.12 2.68 16.19 3.93 17.9L2.18 20.43C1.97 20.74 1.94 21.13 2.12 21.46C2.29 21.79 2.63 22 3.01 22H12.01C17.52 22 22.01 17.51 22.01 12C22.01 6.49 17.51 2 12 2ZM12 20H4.91L6 18.43C6.26 18.06 6.23 17.55 5.94 17.21C4.69335 15.7606 4.00848 13.9118 4.01 12C4.01 7.59 7.6 4 12.01 4C16.42 4 20.01 7.59 20.01 12C20.01 16.41 16.42 20 12.01 20H12Z" fill="currentColor"/>
</svg>
