<svg  width="1440" height="1311" viewBox="0 0 1440 1311" fill="none" xmlns="http://www.w3.org/2000/svg">
<path d="M1060.7 0C1064.24 1.26472 1067.68 2.60984 1071 4.04297C1176.93 49.7237 1149.68 187.199 1271 155.892C1326.99 141.444 1391.92 142.531 1440 146.624V442.45C1377.05 394.982 1253.14 307.025 1186 296.25C1146.39 289.894 1075.76 360.98 993.5 460.85C933.947 533.148 987.388 757.129 923 841.138C707 1057.29 582.903 903.571 395.5 1011.76C196.529 1126.63 444.624 1262.6 2.56152 1311H0V1139.13C51.7777 1119.4 315.454 989.475 189 958.099C112.482 958.099 49.8472 948.577 0 932.55V613.391C204.123 526.939 567.779 443.408 723 349.788C973.202 198.882 899.459 75.45 867.5 54.5791C749.838 -22.2598 363.576 98.9175 263.5 33.5635C193.778 -11.9682 85.7813 56.0509 0 59.5166V0H1060.7Z" fill="#FFF1CD"/>
</svg>
