<svg width="24" height="24" viewBox="0 0 24 24" fill="none" xmlns="http://www.w3.org/2000/svg">
<path d="M12 7.07785V12.0009L15.0769 15.0778" stroke="currentColor" stroke-width="1.5" stroke-linecap="round" stroke-linejoin="round"/>
<path d="M2.56984 5.68831L1.64677 5.692C1.64774 5.93533 1.74474 6.16843 1.91669 6.3406C2.08863 6.51277 2.3216 6.61009 2.56492 6.61139L2.56984 5.68831ZM5.69846 6.62616C5.81968 6.62672 5.93982 6.60341 6.05203 6.55754C6.16424 6.51167 6.26632 6.44416 6.35243 6.35884C6.43855 6.27352 6.50702 6.17208 6.55393 6.06031C6.60084 5.94853 6.62528 5.82861 6.62584 5.70739C6.62641 5.58617 6.60309 5.46602 6.55723 5.35381C6.51136 5.24161 6.44384 5.13953 6.35853 5.05341C6.27321 4.9673 6.17177 4.89883 6.05999 4.85192C5.94822 4.80501 5.82829 4.78057 5.70707 4.78L5.69846 6.62616ZM3.47692 2.54985C3.47562 2.30504 3.37711 2.07077 3.20308 1.89858C3.02904 1.72639 2.79374 1.63039 2.54892 1.6317C2.30411 1.633 2.06984 1.73151 1.89765 1.90554C1.72546 2.07958 1.62946 2.31488 1.63077 2.5597L3.47692 2.54985ZM1.84615 12.0009C1.84615 11.7561 1.7489 11.5213 1.57579 11.3482C1.40268 11.1751 1.16789 11.0778 0.923076 11.0778C0.678261 11.0778 0.443473 11.1751 0.270363 11.3482C0.0972523 11.5213 0 11.7561 0 12.0009H1.84615ZM18 22.3948C18.1094 22.3365 18.2059 22.2569 18.2838 22.1605C18.3617 22.0642 18.4195 21.9531 18.4536 21.834C18.4877 21.7149 18.4974 21.5901 18.4823 21.4671C18.4671 21.3442 18.4274 21.2255 18.3654 21.1182C18.3034 21.0109 18.2204 20.9172 18.1214 20.8427C18.0225 20.7681 17.9095 20.7143 17.7892 20.6843C17.669 20.6544 17.544 20.6489 17.4216 20.6683C17.2992 20.6877 17.182 20.7316 17.0769 20.7972L18 22.3948ZM20.7963 17.0778C20.7306 17.1829 20.6868 17.3001 20.6674 17.4225C20.648 17.5449 20.6534 17.6699 20.6834 17.7902C20.7133 17.9104 20.7672 18.0234 20.8417 18.1224C20.9163 18.2213 21.01 18.3043 21.1173 18.3663C21.2246 18.4283 21.3432 18.468 21.4662 18.4832C21.5892 18.4983 21.714 18.4886 21.8331 18.4545C21.9522 18.4204 22.0632 18.3627 22.1596 18.2847C22.2559 18.2068 22.3356 18.1103 22.3938 18.0009L20.7963 17.0778ZM3.55692 3.4717C3.38294 3.64405 3.28455 3.87845 3.28339 4.12334C3.28224 4.36824 3.37842 4.60356 3.55077 4.77754C3.72312 4.95152 3.95752 5.04991 4.20241 5.05107C4.44731 5.05222 4.68263 4.95605 4.85661 4.7837L3.55692 3.4717ZM20.4455 3.55416C15.744 -1.14738 8.14646 -1.19415 3.47569 3.47662L4.7803 4.78C8.71876 0.842776 15.1471 0.86616 19.1409 4.86L20.4455 3.55416ZM3.47569 3.47662L1.91754 5.03477L3.22215 6.33939L4.78154 4.78247L3.47569 3.47662ZM2.56492 6.61139L5.69846 6.62616L5.70707 4.78L2.57477 4.76523L2.56492 6.61139ZM3.49292 5.68339L3.47692 2.54985L1.63077 2.5597L1.64677 5.692L3.49292 5.68339ZM12 1.84708C14.693 1.84708 17.2756 2.91686 19.1798 4.82107C21.0841 6.72529 22.1538 9.30796 22.1538 12.0009H24C24 8.81833 22.7357 5.76608 20.4853 3.51565C18.2348 1.26521 15.1826 0.00092996 12 0.00092996V1.84708ZM12 22.1548C9.30703 22.1548 6.72436 21.085 4.82014 19.1808C2.91593 17.2766 1.84615 14.6939 1.84615 12.0009H0C0 15.1835 1.26428 18.2358 3.51472 20.4862C5.76515 22.7366 8.8174 24.0009 12 24.0009V22.1548ZM17.0769 20.7972C15.5342 21.6901 13.7825 22.1585 12 22.1548V24.0009C14.1846 24.0009 16.2338 23.4163 18 22.3948L17.0769 20.7972ZM22.1538 12.0009C22.1576 13.7834 21.6892 15.5351 20.7963 17.0778L22.3938 18.0009C23.4492 16.1777 24.0034 14.1076 24 12.0009H22.1538ZM4.85661 4.7837C6.7555 2.89823 9.32404 1.8431 12 1.84708V0.00092996C8.83733 -0.00327834 5.80169 1.24382 3.55692 3.4717L4.85661 4.7837Z" fill="currentColor"/>
</svg>
