<svg width="24" height="24" viewBox="0 0 24 24" fill="none" xmlns="http://www.w3.org/2000/svg">
<path d="M21.21 8.11001C20.96 7.52001 20.65 6.95001 20.29 6.41001C19.93 5.88001 19.52 5.38001 19.07 4.93001C18.62 4.48001 18.12 4.07001 17.59 3.71001C17.05 3.35001 16.48 3.04001 15.89 2.79001C15.29 2.53001 14.65 2.34001 14.01 2.21001C12.7 1.94001 11.29 1.94001 9.98001 2.21001C9.34001 2.34001 8.71001 2.54001 8.10001 2.79001C7.51001 3.04001 6.94001 3.35001 6.40001 3.71001C5.87001 4.07001 5.37001 4.48001 4.92001 4.93001C4.75001 5.10001 4.60001 5.28001 4.44001 5.45001L1.99001 3.00001V9.00001H7.99001L5.86001 6.87001C6.01001 6.69001 6.17001 6.51001 6.34001 6.35001C6.70001 5.99001 7.10001 5.66001 7.52001 5.37001C7.95001 5.08001 8.41001 4.83001 8.88001 4.63001C9.36001 4.43001 9.87001 4.27001 10.38 4.16001C11.43 3.95001 12.56 3.95001 13.61 4.16001C14.12 4.27001 14.63 4.42001 15.11 4.63001C15.58 4.83001 16.04 5.08001 16.47 5.37001C16.89 5.66001 17.29 5.99001 17.65 6.35001C18.01 6.71001 18.34 7.11001 18.63 7.53001C18.92 7.96001 19.17 8.42001 19.37 8.89001C19.57 9.37001 19.73 9.88001 19.84 10.39C19.95 10.92 20 11.46 20 12C20.0039 13.0688 19.7895 14.127 19.37 15.11C19.17 15.58 18.92 16.04 18.63 16.47C18.34 16.89 18.01 17.29 17.65 17.65C17.29 18.01 16.89 18.34 16.47 18.63C16.04 18.92 15.58 19.17 15.11 19.37C14.63 19.57 14.12 19.73 13.61 19.84C12.56 20.05 11.43 20.05 10.38 19.84C9.86579 19.733 9.36336 19.5755 8.88001 19.37C8.41001 19.17 7.95001 18.92 7.52001 18.63C7.10001 18.34 6.70001 18.01 6.34001 17.65C5.98001 17.29 5.65001 16.89 5.36001 16.47C5.07001 16.04 4.82001 15.58 4.62001 15.11C4.42001 14.63 4.26001 14.12 4.15001 13.61C4.0424 13.0801 3.98879 12.5407 3.99001 12H1.99001C1.99001 12.68 2.06001 13.35 2.19001 14.01C2.32001 14.65 2.52001 15.28 2.77001 15.89C3.02001 16.48 3.33001 17.05 3.69001 17.59C4.05001 18.12 4.46001 18.62 4.91001 19.07C5.36001 19.52 5.86001 19.93 6.39001 20.29C6.93001 20.65 7.50001 20.96 8.09001 21.21C8.69001 21.47 9.33001 21.66 9.97001 21.79C10.63 21.92 11.3 21.99 11.98 21.99C12.66 21.99 13.34 21.92 13.99 21.79C14.63 21.66 15.26 21.46 15.87 21.21C16.46 20.96 17.03 20.65 17.57 20.29C18.1 19.93 18.6 19.52 19.05 19.07C19.5 18.62 19.91 18.12 20.27 17.59C20.63 17.05 20.94 16.48 21.19 15.89C21.45 15.29 21.64 14.65 21.77 14.01C21.9 13.35 21.97 12.67 21.97 12C21.97 11.33 21.9 10.65 21.77 9.99001C21.64 9.35001 21.44 8.72001 21.19 8.11001H21.21Z" fill="currentColor"/>
<path d="M11 7V13H17V11H13V7H11Z" fill="currentColor"/>
</svg>
