<svg width="1400" height="226" viewBox="0 0 1400 226" fill="none" xmlns="http://www.w3.org/2000/svg">
<path d="M87.5 0C134.74 0 173.237 17.3274 174.941 39H175V106H0.0751953V42.1768C0.0262618 41.6206 0 41.0617 0 40.5C0 18.1325 39.1753 0.000114523 87.5 0Z" fill="#FFDF8F"/>
<path d="M262.479 0C309.905 9.07846e-05 348.514 14.2374 349.916 32H350V106H175.043V34.0156C175.016 33.6783 175 33.3398 175 33C175 14.7746 214.166 0 262.479 0Z" fill="#FFDF8F"/>
<path d="M437.479 0C484.905 9.07846e-05 523.514 14.2374 524.916 32H525V106H350.043V34.0156C350.016 33.6783 350 33.3398 350 33C350 14.7746 389.166 0 437.479 0Z" fill="#FFDF8F"/>
<path d="M612.479 0C659.905 9.07846e-05 698.514 14.2374 699.916 32H700V106H525.043V34.0156C525.016 33.6783 525 33.3398 525 33C525 14.7746 564.166 0 612.479 0Z" fill="#FFDF8F"/>
<path d="M787.479 0C834.905 9.07846e-05 873.514 14.2374 874.916 32H875V106H700.043V34.0156C700.016 33.6783 700 33.3398 700 33C700 14.7746 739.166 0 787.479 0Z" fill="#FFDF8F"/>
<path d="M962.479 0C1009.91 9.07846e-05 1048.51 14.2374 1049.92 32H1050V106H875.043V34.0156C875.016 33.6783 875 33.3398 875 33C875 14.7746 914.166 0 962.479 0Z" fill="#FFDF8F"/>
<path d="M1137.48 0C1184.91 9.07846e-05 1223.51 14.2374 1224.92 32H1225V106H1050.04V34.0156C1050.02 33.6783 1050 33.3398 1050 33C1050 14.7746 1089.17 0 1137.48 0Z" fill="#FFDF8F"/>
<path d="M1312.48 0C1359.91 9.07846e-05 1398.51 14.2374 1399.92 32H1400V106H1225.04V34.0156C1225.02 33.6783 1225 33.3398 1225 33C1225 14.7746 1264.17 0 1312.48 0Z" fill="#FFDF8F"/>
<path d="M1312.5 226C1265.26 226 1226.76 208.673 1225.06 187H1225V120H1399.92V183.823C1399.97 184.379 1400 184.938 1400 185.5C1400 207.867 1360.82 226 1312.5 226Z" fill="#FFDF8F"/>
<path d="M1137.52 226C1090.09 226 1051.49 211.763 1050.08 194H1050V120H1224.96V191.984C1224.98 192.322 1225 192.66 1225 193C1225 211.225 1185.83 226 1137.52 226Z" fill="#FFDF8F"/>
<path d="M962.521 226C915.095 226 876.486 211.763 875.084 194H875V120H1049.96V191.984C1049.98 192.322 1050 192.66 1050 193C1050 211.225 1010.83 226 962.521 226Z" fill="#FFDF8F"/>
<path d="M787.521 226C740.095 226 701.486 211.763 700.084 194H700V120H874.957V191.984C874.984 192.322 875 192.66 875 193C875 211.225 835.834 226 787.521 226Z" fill="#FFDF8F"/>
<path d="M612.521 226C565.095 226 526.486 211.763 525.084 194H525V120H699.957V191.984C699.984 192.322 700 192.66 700 193C700 211.225 660.834 226 612.521 226Z" fill="#FFDF8F"/>
<path d="M437.521 226C390.095 226 351.486 211.763 350.084 194H350V120H524.957V191.984C524.984 192.322 525 192.66 525 193C525 211.225 485.834 226 437.521 226Z" fill="#FFDF8F"/>
<path d="M262.521 226C215.095 226 176.486 211.763 175.084 194H175V120H349.957V191.984C349.984 192.322 350 192.66 350 193C350 211.225 310.834 226 262.521 226Z" fill="#FFDF8F"/>
<path d="M87.5205 226C40.0946 226 1.48563 211.763 0.0839844 194H0V120H174.957V191.984C174.984 192.322 175 192.66 175 193C175 211.225 135.834 226 87.5205 226Z" fill="#FFDF8F"/>
<rect width="1400" height="137" transform="translate(0 44)" fill="#FFDF8F"/>
</svg>
