<svg width="1440" height="802" viewBox="0 0 1440 802" fill="none" xmlns="http://www.w3.org/2000/svg">
<path d="M1447.5 59.7173C1550.18 33.7479 1464 357.217 1464 357.217C1372.37 340.643 1315.37 453.479 1383.08 517.402L1447.5 578.217L1464 674.718C1464 674.718 1287.18 710.504 1273 621.217C1266 577.142 1255.15 545.722 1242.47 523.529C1197.93 445.6 1096.8 515.439 1028.74 573.955C953.587 638.572 853.404 715.234 792.5 723.717C333 787.718 682 328.217 457.5 317.717C346.122 312.507 159.5 273.217 105 380.717C52.8429 483.595 328 528.717 243.5 621.217C170.957 700.628 -198.387 801.193 -198.387 801.193L-125.5 482.717C-125.5 482.717 -75.111 381.364 10.5003 343.217C128.899 290.459 -175.913 30.8767 -49.5001 2.2163C96.4999 -30.8847 561.72 317.717 687 317.717C827.5 317.717 848 36.716 967.5 36.716C1073.93 36.716 1048.13 181.74 1154 183.216C1257.33 184.656 1347.31 85.0566 1447.5 59.7173Z" fill="#FFF1CD"/>
</svg>
