<svg width="1440" height="854" viewBox="0 0 1440 854" fill="none" xmlns="http://www.w3.org/2000/svg">
<path d="M1288 400.199C1343.79 400.199 1362.99 416.367 1361.62 439.727C1354.53 560.565 1291.34 686.048 1377.11 771.465L1459.57 853.588L1459.57 41.589C1459.57 41.589 1432.11 164.758 1364.55 112.431C1298.82 61.5222 1235.71 21.0886 1201.07 21.0887C910.458 21.0886 846.862 107.148 678 67.1992C82.0004 -73.8008 355.429 56.5888 204 21.0887C95.3139 -4.39133 135.072 113.589 50.5717 21.0886C-21.971 -58.3221 -56.3576 267.701 -56.3576 267.701L-261.928 289.089C-261.928 289.089 -115.706 583.263 -83.9284 495.089C-28.9045 342.415 -31.4127 463.539 95.0005 492.199C241 525.3 157.001 345.199 142.5 292.699C69.9006 29.8461 397.001 232.199 537.501 245.699C721.501 263.379 1072.39 182.866 1176 204.699C1306.5 232.199 1203.83 400.199 1288 400.199Z" fill="#C2D7ED"/>
</svg>
