<svg width="24" height="24" viewBox="0 0 24 24" fill="none" xmlns="http://www.w3.org/2000/svg">
<path d="M15.0001 5.99986C14.6093 6.39071 14.6075 7.02672 14.9988 7.41711L18.59 11H10C9.44772 11 9 11.4477 9 12C9 12.5523 9.44772 13 10 13H18.59L14.9988 16.5829C14.6075 16.9733 14.6093 17.6093 15.0001 18.0002C15.3909 18.3909 16.0267 18.3929 16.4171 18.0018L21.7045 12.7066C22.0943 12.3162 22.0943 11.6838 21.7045 11.2934L16.4171 5.99817C16.0267 5.60715 15.3909 5.60913 15.0001 5.99986Z" fill="currentColor"/>
<path d="M10.003 5.07077C10.5497 4.99249 11 4.55228 11 4C11 3.44772 10.5505 2.99415 10.0016 3.05509C5.5091 3.55385 2 7.37737 2 12C2 16.6226 5.5091 20.4461 10.0016 20.9449C10.5505 21.0058 11 20.5523 11 20C11 19.4477 10.5497 19.0075 10.003 18.9292C6.61356 18.4439 4 15.5216 4 12C4 8.47841 6.61356 5.55611 10.003 5.07077Z" fill="currentColor"/>
</svg>
