<svg width="1440" height="669" viewBox="0 0 1440 669" fill="none" xmlns="http://www.w3.org/2000/svg">
<path d="M1316.38 107.472C1419.05 81.5027 1565.37 0.000707848 1565.37 0.000707848L1713.44 284.811C1713.44 284.811 1546.36 388.526 1463 423.514C1362.41 465.733 1221.11 482.983 1113.75 463.597C1079.73 457.454 1047.57 465.824 1023.5 500.514C957.909 595.03 715.5 413.013 600 514.514C514.724 589.453 373.5 404.514 274 514.514C196.624 600.055 39.9998 381.513 -44.5003 474.014C-117.043 553.424 -198.388 668.989 -198.388 668.989L-345.071 386.84C-345.071 386.84 -267.612 278.661 -182 240.514C-63.6013 187.756 -73.9129 98.1742 52.5003 69.5138C198.5 36.4128 338.842 204.832 431.5 120.514C531.5 29.5136 658 165.514 777.5 165.514C883.925 165.514 936.625 68.038 1042.5 69.5136C1145.83 70.9538 1216.19 132.812 1316.38 107.472Z" fill="#C2D7ED"/>
</svg>
