<svg width="24" height="24" viewBox="0 0 24 24" fill="none" xmlns="http://www.w3.org/2000/svg">
<path d="M18.07 22H18.42C18.89 21.98 19.32 21.74 19.59 21.36L21.73 18.27C21.96 17.94 22.05 17.53 21.97 17.13C21.89 16.73 21.66 16.39 21.33 16.16L16.69 13.07C16.4447 12.9051 16.1555 12.818 15.86 12.82C15.45 12.82 15.05 12.98 14.76 13.3L13.29 14.89C12.6 14.46 11.68 13.82 10.93 13.07C10.21 12.35 9.56 11.43 9.11 10.71L10.7 9.23999C11.24 8.73999 11.34 7.91999 10.93 7.30999L7.84 2.66999C7.62 2.33999 7.27 2.09999 6.87 2.02999C6.67523 1.99102 6.47455 1.99221 6.28025 2.03347C6.08595 2.07474 5.90212 2.15522 5.74 2.26999L2.65 4.40999C2.26 4.67999 2.03 5.10999 2.01 5.57999C1.98 6.26999 1.85 12.48 6.69 17.32C11.04 21.67 16.5 22.01 18.07 22.01V22ZM6.88 10.05C6.72 10.2 6.67 10.44 6.77 10.64C6.82 10.73 7.92 12.88 9.51 14.48C11.11 16.08 13.26 17.18 13.35 17.23C13.55 17.33 13.79 17.29 13.94 17.12L15.93 14.97L19.79 17.54L18.09 20C16.93 20 11.96 19.76 8.1 15.9C4.24 12.04 4 7.05999 4 5.90999L6.46 4.20999L9.03 8.06999L6.88 10.06V10.05Z" fill="currentColor"/>
</svg>
