<svg width="1440" height="669" viewBox="0 0 1440 669" fill="none" xmlns="http://www.w3.org/2000/svg">
<path d="M1316.38 107.471C1419.05 81.5021 1565.37 -3.03776e-05 1565.37 -3.03776e-05L1713.44 284.811C1713.44 284.811 1494.36 301.526 1411 336.513C1285.36 389.245 1164.66 526.498 1033.46 489.751C1003.67 481.408 976.311 475.788 954.516 474.798C839.589 469.578 765.5 454.013 631.5 415.513C522.39 384.164 490.363 396.162 378.5 415.513C264.844 435.175 95.0001 482.513 10.5001 575.013C-62.0426 654.424 -198.388 668.989 -198.388 668.989L-345.071 386.84C-345.071 386.84 -267.611 278.661 -182 240.513C-63.601 187.755 -17.4132 136.132 109 107.471C255 74.3703 316.22 151.513 441.5 151.513C582 151.513 658 165.513 777.5 165.513C883.926 165.513 946.995 130.281 1052.87 131.756C1156.2 133.196 1216.19 132.811 1316.38 107.471Z" fill="#FFF1CD"/>
</svg>
