<svg width="24" height="24" viewBox="0 0 24 24" fill="none" xmlns="http://www.w3.org/2000/svg">
<g clip-path="url(#clip0_802_314)">
<path d="M18 0C17.3635 0 16.753 0.252856 16.3029 0.702944C15.8529 1.15303 15.6 1.76348 15.6 2.4C15.6 3.03652 15.8529 3.64697 16.3029 4.09706C16.753 4.54714 17.3635 4.8 18 4.8C18.6365 4.8 19.247 4.54714 19.6971 4.09706C20.1471 3.64697 20.4 3.03652 20.4 2.4C20.4 1.76348 20.1471 1.15303 19.6971 0.702944C19.247 0.252856 18.6365 0 18 0ZM17.58 11.352C17.8053 11.6154 18.085 11.8269 18.3999 11.9719C18.7148 12.1169 19.0573 12.192 19.404 12.192C19.884 12.192 20.376 12.048 20.796 11.736L24.108 9.372L22.716 7.416L19.404 9.78L17.052 7.044C16.536 6.432 15.816 6.012 15.024 5.856L10.644 4.98C9.672 4.788 8.664 5.22 8.136 6.06L5.58 10.152L7.62 11.424L10.176 7.332L12.624 7.824L6.516 18H0V20.4H6.516C7.356 20.4 8.148 19.956 8.568 19.236L10.872 15.396L17.04 16.632L19.236 24.324L21.54 23.664L19.344 15.972C19.2227 15.5487 18.9872 15.1669 18.6633 14.8685C18.3395 14.57 17.9398 14.3664 17.508 14.28L13.896 13.56L16.188 9.744L17.568 11.352H17.58Z" fill="currentColor"/>
</g>
<defs>
<clipPath id="clip0_802_314">
<rect width="24" height="24" fill="white"/>
</clipPath>
</defs>
</svg>
