<svg width="1440" height="1253" viewBox="0 0 1440 1253" fill="none" xmlns="http://www.w3.org/2000/svg">
<path d="M1299 556.5C1291.03 518.246 1237.42 439.68 1172.93 355.757C1073.16 225.929 1149.9 30.6911 1312.87 14.8432L1465.5 -0.000152112L1808.44 913.673C1808.44 913.673 1711.19 880.615 1609.89 856.757C1476.15 825.259 1357.74 893.542 1254.16 983.824C1228.08 1006.56 1201.98 1027.73 1179 1043.5C1094.5 1101.5 853.317 682.22 757.501 783.5C348.501 1215.83 237.363 894.321 125.5 913.673C11.8439 933.335 149.5 1065.5 65 1158C-7.54264 1237.41 -98.4175 1252.15 -98.4175 1252.15L-245.101 970C-245.101 970 -206.111 821.648 -120.5 783.5C-2.10095 730.742 112.587 585.16 239 556.5C385 523.399 246.69 807.173 371.97 807.173C512.47 807.173 638.001 632 757.501 632C863.927 632 988.625 714.024 1094.5 715.5C1197.83 716.94 1314 628.5 1299 556.5Z" fill="#C2D7ED"/>
</svg>
