<svg width="1440" height="669" viewBox="0 0 1440 669" fill="none" xmlns="http://www.w3.org/2000/svg">
<path d="M1323 264.013C1425.68 238.044 1565.37 -0.000350248 1565.37 -0.000350248L1713.44 284.81C1713.44 284.81 1546.36 388.525 1463 423.512C1354.92 468.874 1214.45 513.286 1103.9 474.319C1044.97 453.547 987.756 451.816 955.002 499.013C889.411 593.53 657.501 607.014 480.001 539.513C373.89 499.161 281.5 389.013 182 499.013C104.624 584.554 40.0001 381.513 -44.5 474.013C-117.043 553.423 -198.388 668.988 -198.388 668.988L-345.071 386.839C-345.071 386.839 -130.11 145.619 -44.4992 107.471C73.8998 54.7133 55.587 292.674 182 264.013C328 230.912 295.843 153.831 388.501 69.5127C488.501 -21.4873 658 165.513 777.5 165.513C913.001 165.513 936.625 68.0371 1042.5 69.5127C1145.83 70.9528 1222.81 289.353 1323 264.013Z" fill="#FFF1CD"/>
</svg>
