<svg width="24" height="24" viewBox="0 0 24 24" fill="none" xmlns="http://www.w3.org/2000/svg">
<path d="M12 8C9.79 8 8 9.79 8 12C8 14.21 9.79 16 12 16C14.21 16 16 14.21 16 12C16 9.79 14.21 8 12 8ZM12 14C10.92 14 10 13.08 10 12C10 10.92 10.92 10 12 10C13.08 10 14 10.92 14 12C14 13.08 13.08 14 12 14Z" fill="currentColor"/>
<path d="M20.42 13.4L19.91 13.11C19.96 12.74 19.99 12.37 19.99 12C19.99 11.63 19.96 11.26 19.91 10.89L20.42 10.6C21.38 10.05 21.7 8.82001 21.15 7.87001L20.15 6.14001C19.8833 5.68276 19.4467 5.34944 18.9354 5.2127C18.424 5.07596 17.8793 5.14688 17.42 5.41001L16.89 5.72001C16.31 5.26001 15.67 4.89001 14.99 4.61001V4.01001C14.99 2.91001 14.09 2.01001 12.99 2.01001H10.99C9.89 2.01001 8.99 2.91001 8.99 4.01001V4.61001C8.32 4.89001 7.68 5.27001 7.09 5.72001L6.56 5.41001C5.6 4.86001 4.38 5.19001 3.83 6.14001L2.83 7.87001C2.28 8.83001 2.61 10.05 3.56 10.6L4.07 10.89C4.02 11.26 3.99 11.63 3.99 12C3.99 12.37 4.02 12.74 4.07 13.11L3.56 13.4C2.6 13.95 2.28 15.18 2.83 16.13L3.83 17.86C4.38 18.81 5.6 19.14 6.56 18.59L7.09 18.28C7.67 18.74 8.31 19.11 8.99 19.39V19.99C8.99 21.09 9.89 21.99 10.99 21.99H12.99C14.09 21.99 14.99 21.09 14.99 19.99V19.39C15.6678 19.1019 16.3062 18.7289 16.89 18.28L17.42 18.59C18.37 19.14 19.6 18.81 20.15 17.86L21.15 16.13C21.7 15.17 21.37 13.95 20.42 13.4ZM17.83 10.62C17.94 11.07 18 11.54 18 12C18 12.46 17.94 12.92 17.83 13.38C17.777 13.591 17.7941 13.8135 17.879 14.0138C17.9638 14.2141 18.1116 14.3813 18.3 14.49L19.42 15.14L18.42 16.87L17.28 16.21C16.9 15.99 16.41 16.05 16.09 16.35C15.41 17 14.58 17.48 13.71 17.75C13.29 17.88 13 18.27 13 18.71V20.01H11V18.71C11 18.27 10.71 17.88 10.29 17.75C9.41 17.48 8.59 17 7.91 16.35C7.75371 16.2011 7.55383 16.1062 7.33968 16.0792C7.12552 16.0522 6.90835 16.0946 6.72 16.2L5.58 16.86L4.58 15.13L5.7 14.48C6.09 14.26 6.28 13.8 6.17 13.37C6.06 12.92 6 12.45 6 11.99C6 11.53 6.06 11.06 6.17 10.61C6.22305 10.399 6.20586 10.1765 6.12104 9.97623C6.03623 9.77592 5.88841 9.60873 5.7 9.50001L4.58 8.85001L5.58 7.12001L6.72 7.78001C7.1 8.00001 7.59 7.94001 7.91 7.64001C8.59 6.99001 9.42 6.51001 10.29 6.24001C10.71 6.11001 11 5.72001 11 5.28001V3.98001H13V5.28001C13 5.72001 13.29 6.11001 13.71 6.24001C14.59 6.51001 15.41 6.99001 16.09 7.64001C16.41 7.95001 16.9 8.00001 17.28 7.78001L18.42 7.12001L19.42 8.85001L18.3 9.50001C17.91 9.72001 17.72 10.18 17.83 10.61V10.62Z" fill="currentColor"/>
</svg>
