<svg width="16" height="16" viewBox="0 0 16 16" fill="none" xmlns="http://www.w3.org/2000/svg">
<g clip-path="url(#clip0_2157_10501)">
<path d="M10.1913 2.10134L9.57334 2.71934L3.89267 8.39934C3.508 8.78467 3.31534 8.97734 3.15 9.18934C2.95493 9.43966 2.78751 9.71034 2.65067 9.99667C2.53534 10.2393 2.44934 10.498 2.27734 11.014L1.548 13.2013L1.36934 13.736C1.32754 13.8606 1.32134 13.9945 1.35143 14.1224C1.38152 14.2504 1.4467 14.3674 1.53965 14.4604C1.6326 14.5533 1.74963 14.6185 1.87759 14.6486C2.00556 14.6787 2.13937 14.6725 2.264 14.6307L2.79867 14.452L4.986 13.7227C5.50267 13.5507 5.76067 13.4647 6.00334 13.3493C6.29089 13.2125 6.56 13.046 6.81067 12.85C7.02267 12.6847 7.21534 12.492 7.6 12.1073L13.2807 6.42667L13.8987 5.80867C14.3903 5.31705 14.6665 4.65027 14.6665 3.95501C14.6665 3.25975 14.3903 2.59296 13.8987 2.10134C13.407 1.60972 12.7403 1.33353 12.045 1.33353C11.3497 1.33353 10.683 1.60972 10.1913 2.10134Z" stroke="currentColor" stroke-width="1.5"/>
<path opacity="0.5" d="M9.57334 2.71869C9.57334 2.71869 9.65067 4.03202 10.8093 5.19069C11.968 6.34936 13.2807 6.42602 13.2807 6.42602M2.79867 14.452L1.548 13.2014" stroke="currentColor" stroke-width="1.5"/>
</g>
<defs>
<clipPath id="clip0_2157_10501">
<rect width="16" height="16" fill="white"/>
</clipPath>
</defs>
</svg>
