<svg width="24" height="24" viewBox="0 0 24 24" fill="none" xmlns="http://www.w3.org/2000/svg">
<path d="M9.50106 19.5012C9.50106 18.7872 9.50106 18.4312 9.46206 18.1942C9.34006 17.4312 9.31906 17.3822 8.83206 16.7822C8.68006 16.5952 8.12006 16.0942 7.00006 15.0902C5.86794 14.0776 5.06995 12.7452 4.71166 11.2692C4.35336 9.79316 4.45167 8.24315 4.99356 6.82422C5.53545 5.4053 6.49539 4.18434 7.74636 3.3229C8.99733 2.46147 10.4804 2.00015 11.9993 2C13.5181 1.99985 15.0013 2.46086 16.2524 3.32205C17.5035 4.18324 18.4637 5.404 19.0059 6.82282C19.5481 8.24164 19.6467 9.79164 19.2887 11.2677C18.9307 12.7438 18.133 14.0764 17.0011 15.0892C15.8801 16.0932 15.3201 16.5952 15.1691 16.7812C14.6821 17.3812 14.6611 17.4302 14.5381 18.1932C14.5001 18.4302 14.5001 18.7872 14.5001 19.5002H9.50006C9.50006 20.4352 9.50006 20.9022 9.70106 21.2502C9.83271 21.4782 10.0221 21.6676 10.2501 21.7992C10.5981 22.0002 11.0651 22.0002 12.0001 22.0002C12.9351 22.0002 13.4021 22.0002 13.7511 21.8002C13.9791 21.6686 14.1684 21.4792 14.3001 21.2512C14.5011 20.9032 14.5011 20.4362 14.5011 19.5012" stroke="#0E3B6A" stroke-width="2"/>
<path d="M12.0001 17V15M12.0001 15C12.3511 15 12.696 14.9075 13 14.732C13.3041 14.5565 13.5565 14.304 13.7321 14M12.0001 15C11.649 15 11.3041 14.9075 11.0001 14.732C10.6961 14.5565 10.4436 14.304 10.2681 14" stroke="#0E3B6A" stroke-width="2" stroke-linecap="round"/>
</svg>
