<svg width="24" height="24" viewBox="0 0 24 24" fill="none" xmlns="http://www.w3.org/2000/svg">
<path d="M4.82999 12.49L6.86999 14.32L6.03999 17.22L5.03999 20.72C4.91999 21.12 5.06999 21.56 5.40999 21.8C5.74999 22.05 6.20999 22.06 6.54999 21.82L9.54999 19.82L12 18.19L14.45 19.82L17.45 21.82C17.6189 21.9346 17.8191 21.9942 18.0232 21.9906C18.2272 21.987 18.4252 21.9205 18.59 21.8C18.93 21.55 19.08 21.12 18.96 20.72L17.96 17.22L17.13 14.32L19.17 12.49L21.67 10.24C21.97 9.97001 22.08 9.55001 21.95 9.18001C21.82 8.80001 21.48 8.54001 21.08 8.50001L17.93 8.25001L15.37 8.05001L12.9 2.59001C12.8211 2.41474 12.6932 2.26599 12.5318 2.16163C12.3703 2.05728 12.1822 2.00177 11.99 2.00177C11.7978 2.00177 11.6096 2.05728 11.4482 2.16163C11.2868 2.26599 11.1589 2.41474 11.08 2.59001L8.60999 8.05001L6.04999 8.25001L2.89999 8.50001C2.49999 8.53001 2.15999 8.80001 2.02999 9.18001C1.89999 9.56001 2.00999 9.98001 2.30999 10.24L4.80999 12.49H4.82999ZM6.21999 10.24L8.73999 10.04L9.35999 9.99001L9.94999 9.94001L10.79 8.08001L11.99 5.42001L13.19 8.08001L14.03 9.94001L14.62 9.99001L15.24 10.04L17.76 10.24L18.59 10.31L17.82 11L15.32 13.25L14.86 13.67L15.03 14.27L16.28 18.65L12.54 16.16L11.99 15.79L11.44 16.16L7.69999 18.65L8.94999 14.27L9.11999 13.67L8.65999 13.25L6.15999 11L5.38999 10.31L6.21999 10.24Z" fill="currentColor"/>
</svg>
