<svg width="710" height="388" viewBox="0 0 710 388" fill="none" xmlns="http://www.w3.org/2000/svg">
<g clip-path="url(#clip0_3022_27937)">
<rect width="710" height="388" rx="20" fill="#C2D7ED"/>
<path d="M354.479 83C408.366 83 452.344 119.827 454.843 166.072H455V387.998H254.043V172.745C254.016 171.909 254 171.07 254 170.228C254 169.385 254.016 168.546 254.043 167.709V166.072H254.114C256.613 119.827 300.591 83.0001 354.479 83Z" fill="#FFDF8F"/>
<path d="M175.483 161C217.575 161 251.926 192.393 253.878 231.814H254V420.997H97.0342V237.516C97.0126 236.799 97 236.08 97 235.358C97 234.636 97.0126 233.916 97.0342 233.199V231.814H97.0889C99.041 192.393 133.392 161 175.483 161Z" fill="#0E3B6A"/>
<path d="M533.483 161C575.575 161 609.926 192.393 611.878 231.814H612V420.997H455.034V237.516C455.013 236.799 455 236.08 455 235.358C455 234.636 455.013 233.916 455.034 233.199V231.814H455.089C457.041 192.393 491.392 161 533.483 161Z" fill="#0E3B6A"/>
<rect x="302" y="131" width="104" height="104" rx="52" fill="#0E3B6A"/>
<path d="M335.8 192.8C338.796 192.8 341.456 191.4 343.276 189.272L362.512 200.108C362.484 200.472 362.4 200.836 362.4 201.2C362.4 206.604 366.796 211 372.2 211C377.604 211 382 206.604 382 201.2C382 195.796 377.604 191.4 372.2 191.4C369.204 191.4 366.544 192.8 364.724 194.928L345.488 184.092C345.516 183.728 345.6 183.364 345.6 183C345.6 182.636 345.544 182.272 345.488 181.908L364.724 171.072C366.516 173.2 369.176 174.6 372.2 174.6C377.604 174.6 382 170.204 382 164.8C382 159.396 377.604 155 372.2 155C366.796 155 362.4 159.396 362.4 164.8C362.4 165.164 362.456 165.528 362.512 165.892L343.276 176.728C342.365 175.628 341.223 174.742 339.931 174.132C338.639 173.522 337.229 173.204 335.8 173.2C330.396 173.2 326 177.596 326 183C326 188.404 330.396 192.8 335.8 192.8ZM372.2 197C374.524 197 376.4 198.876 376.4 201.2C376.4 203.524 374.524 205.4 372.2 205.4C369.876 205.4 368 203.524 368 201.2C368 198.876 369.876 197 372.2 197ZM372.2 160.6C374.524 160.6 376.4 162.476 376.4 164.8C376.4 167.124 374.524 169 372.2 169C369.876 169 368 167.124 368 164.8C368 162.476 369.876 160.6 372.2 160.6ZM335.8 178.8C338.124 178.8 340 180.676 340 183C340 185.324 338.124 187.2 335.8 187.2C333.476 187.2 331.6 185.324 331.6 183C331.6 180.676 333.476 178.8 335.8 178.8Z" fill="#FFDF8F"/>
<rect x="129" y="192" width="92" height="92" rx="46" fill="#FFDF8F"/>
<path d="M190.693 221.812C190.162 221.445 189.465 221.39 188.878 221.665L157.712 236.35C157.393 236.501 157.125 236.74 156.939 237.039C156.753 237.338 156.657 237.684 156.663 238.036C156.669 238.389 156.776 238.732 156.972 239.024C157.168 239.317 157.444 239.547 157.767 239.687L167.667 244.014V256.334L178.373 248.689L187.1 252.502C187.338 252.612 187.577 252.649 187.833 252.649C188.163 252.649 188.493 252.557 188.787 252.374C189.04 252.222 189.253 252.011 189.406 251.759C189.56 251.506 189.649 251.22 189.667 250.925L191.5 223.425C191.537 222.784 191.243 222.16 190.712 221.794L190.693 221.812ZM186.165 248.102L176.613 243.922L182.333 232.5L168.308 240.292L162.937 237.945L187.632 226.322L186.183 248.12L186.165 248.102Z" fill="#0E3B6A"/>
<rect x="488" y="192" width="92" height="92" rx="46" fill="#FFDF8F"/>
<path d="M530.333 239.834H526.667C521.607 239.834 517.5 243.94 517.5 249V250.834C517.5 251.842 518.325 252.667 519.333 252.667H537.667C538.675 252.667 539.5 251.842 539.5 250.834V249C539.5 243.94 535.393 239.834 530.333 239.834ZM521.167 249C521.167 245.975 523.642 243.5 526.667 243.5H530.333C533.358 243.5 535.833 245.975 535.833 249H521.167ZM535.338 227.935C535.192 227.532 534.99 227.165 534.788 226.799V226.78C533.523 224.69 531.25 223.315 528.518 223.315C524.338 223.315 521.185 226.469 521.185 230.649C521.185 234.829 524.338 237.982 528.518 237.982C531.25 237.982 533.523 236.625 534.788 234.517V234.499C535.008 234.132 535.192 233.765 535.338 233.362C535.375 233.252 535.393 233.142 535.43 233.032C535.54 232.72 535.632 232.409 535.705 232.079C535.797 231.62 535.833 231.144 535.833 230.649C535.833 230.154 535.778 229.677 535.705 229.219C535.65 228.889 535.54 228.577 535.43 228.265C535.393 228.155 535.375 228.045 535.338 227.935ZM528.5 234.334C526.337 234.334 524.833 232.83 524.833 230.667C524.833 228.504 526.337 227 528.5 227C530.663 227 532.167 228.504 532.167 230.667C532.167 232.83 530.663 234.334 528.5 234.334ZM539.5 234.334C539.298 234.334 539.097 234.315 538.895 234.279C538.492 235.489 537.868 236.607 537.098 237.597C537.85 237.835 538.638 238 539.5 238C543.68 238 546.833 234.847 546.833 230.667C546.833 226.487 543.68 223.334 539.5 223.334C538.638 223.334 537.85 223.499 537.098 223.737C537.887 224.709 538.492 225.827 538.895 227.055C539.097 227.037 539.28 227 539.5 227C541.663 227 543.167 228.504 543.167 230.667C543.167 232.83 541.663 234.334 539.5 234.334ZM541.333 239.834H539.298C540.398 240.897 541.278 242.162 541.938 243.555C544.688 243.867 546.833 246.177 546.833 249H543.167V250.834C543.167 251.475 543.038 252.099 542.837 252.667H548.667C549.675 252.667 550.5 251.842 550.5 250.834V249C550.5 243.94 546.393 239.834 541.333 239.834Z" fill="#0E3B6A"/>
</g>
<defs>
<clipPath id="clip0_3022_27937">
<rect width="710" height="388" rx="20" fill="white"/>
</clipPath>
</defs>
</svg>
