<svg width="24" height="24" viewBox="0 0 24 24" fill="none" xmlns="http://www.w3.org/2000/svg">
<path d="M10 13H8C5.24 13 3 15.24 3 18V19C3 19.55 3.45 20 4 20H14C14.55 20 15 19.55 15 19V18C15 15.24 12.76 13 10 13ZM5 18C5 16.35 6.35 15 8 15H10C11.65 15 13 16.35 13 18H5ZM12.73 6.50999C12.65 6.28999 12.54 6.08999 12.43 5.88999V5.87999C11.74 4.73999 10.5 3.98999 9.01 3.98999C6.73 3.98999 5.01 5.70999 5.01 7.98999C5.01 10.27 6.73 11.99 9.01 11.99C10.5 11.99 11.74 11.25 12.43 10.1V10.09C12.55 9.88999 12.65 9.68999 12.73 9.46999C12.75 9.40999 12.76 9.34999 12.78 9.28999C12.84 9.11999 12.89 8.94999 12.93 8.76999C12.98 8.51999 13 8.25999 13 7.98999C13 7.71999 12.97 7.45999 12.93 7.20999C12.9 7.02999 12.84 6.85999 12.78 6.68999C12.76 6.62999 12.75 6.56999 12.73 6.50999ZM9 9.99999C7.82 9.99999 7 9.17999 7 7.99999C7 6.81999 7.82 5.99999 9 5.99999C10.18 5.99999 11 6.81999 11 7.99999C11 9.17999 10.18 9.99999 9 9.99999ZM15 9.99999C14.89 9.99999 14.78 9.98999 14.67 9.96999C14.45 10.63 14.11 11.24 13.69 11.78C14.1 11.91 14.53 12 15 12C17.28 12 19 10.28 19 7.99999C19 5.71999 17.28 3.99999 15 3.99999C14.53 3.99999 14.1 4.08999 13.69 4.21999C14.12 4.74999 14.45 5.35999 14.67 6.02999C14.78 6.01999 14.88 5.99999 15 5.99999C16.18 5.99999 17 6.81999 17 7.99999C17 9.17999 16.18 9.99999 15 9.99999ZM16 13H14.89C15.49 13.58 15.97 14.27 16.33 15.03C17.83 15.2 19 16.46 19 18H17V19C17 19.35 16.93 19.69 16.82 20H20C20.55 20 21 19.55 21 19V18C21 15.24 18.76 13 16 13Z" fill="currentColor"/>
</svg>
