<svg width="24" height="24" viewBox="0 0 24 24" fill="none" xmlns="http://www.w3.org/2000/svg">
<path d="M7.75999 14.83L5.63499 16.955C5.24563 17.3444 5.24563 17.9756 5.63499 18.365C6.02435 18.7544 6.65563 18.7544 7.04499 18.365L9.16999 16.24L11.29 14.12L12 13.41L12.71 14.12L14.12 15.54L16.954 18.366C17.3441 18.755 17.9755 18.7545 18.365 18.365C18.7545 17.9755 18.755 17.3441 18.366 16.954L15.54 14.12L14.12 12.71L13.41 12L18.365 7.04499C18.7544 6.65563 18.7544 6.02435 18.365 5.63499C17.9756 5.24563 17.3444 5.24563 16.955 5.63499L12 10.59L7.04499 5.63499C6.65563 5.24563 6.02435 5.24563 5.63499 5.63499C5.24563 6.02435 5.24563 6.65563 5.63499 7.04499L10.59 12L9.87999 12.71L7.75999 14.83Z" fill="currentColor"/>
</svg>
