<svg width="48" height="48" viewBox="0 0 48 48" fill="none" xmlns="http://www.w3.org/2000/svg">
<rect x="0.5" y="0.5" width="47" height="47" rx="23.5" fill="#FAF9F6"/>
<rect x="0.5" y="0.5" width="47" height="47" rx="23.5" stroke="#0E3B6A"/>
<path d="M31 24.59V22C31 18.78 28.82 16.07 25.86 15.26C25.57 14.52 24.85 14 24 14C23.15 14 22.44 14.52 22.14 15.26C19.18 16.08 17 18.79 17 22V24.59L15.29 26.3C15.1973 26.3934 15.124 26.5043 15.0742 26.6261C15.0245 26.7479 14.9993 26.8784 15 27.01V29.01C15 29.56 15.45 30.01 16 30.01H32C32.55 30.01 33 29.56 33 29.01V27.01C33 26.74 32.89 26.49 32.71 26.3L31 24.59ZM31 28H17V27.41L18.71 25.7C18.8027 25.6066 18.876 25.4957 18.9258 25.3739C18.9756 25.2521 19.0008 25.1216 19 24.99V21.99C19 19.23 21.24 16.99 24 16.99C26.76 16.99 29 19.23 29 21.99V24.99C29 25.26 29.11 25.51 29.29 25.7L31 27.41V28ZM26.82 32H21.18C21.59 33.17 22.69 34 24 34C25.31 34 26.41 33.17 26.82 32Z" fill="#0E3B6A"/>
</svg>
