<svg width="48" height="48" viewBox="0 0 48 48" fill="none" xmlns="http://www.w3.org/2000/svg">
<rect x="0.5" y="0.5" width="47" height="47" rx="23.5" fill="#FAF9F6"/>
<rect x="0.5" y="0.5" width="47" height="47" rx="23.5" stroke="#0E3B6A"/>
<path d="M24 20C21.79 20 20 21.79 20 24C20 26.21 21.79 28 24 28C26.21 28 28 26.21 28 24C28 21.79 26.21 20 24 20ZM24 26C22.92 26 22 25.08 22 24C22 22.92 22.92 22 24 22C25.08 22 26 22.92 26 24C26 25.08 25.08 26 24 26Z" fill="#0E3B6A"/>
<path d="M32.4201 25.4L31.9101 25.11C31.9601 24.74 31.9901 24.37 31.9901 24C31.9901 23.63 31.9601 23.26 31.9101 22.89L32.4201 22.6C33.3801 22.05 33.7001 20.82 33.1501 19.87L32.1501 18.14C31.8834 17.6828 31.4468 17.3494 30.9354 17.2127C30.4241 17.076 29.8794 17.1469 29.4201 17.41L28.8901 17.72C28.3101 17.26 27.6701 16.89 26.9901 16.61V16.01C26.9901 14.91 26.0901 14.01 24.9901 14.01H22.9901C21.8901 14.01 20.9901 14.91 20.9901 16.01V16.61C20.3201 16.89 19.6801 17.27 19.0901 17.72L18.5601 17.41C17.6001 16.86 16.3801 17.19 15.8301 18.14L14.8301 19.87C14.2801 20.83 14.6101 22.05 15.5601 22.6L16.0701 22.89C16.0201 23.26 15.9901 23.63 15.9901 24C15.9901 24.37 16.0201 24.74 16.0701 25.11L15.5601 25.4C14.6001 25.95 14.2801 27.18 14.8301 28.13L15.8301 29.86C16.3801 30.81 17.6001 31.14 18.5601 30.59L19.0901 30.28C19.6701 30.74 20.3101 31.11 20.9901 31.39V31.99C20.9901 33.09 21.8901 33.99 22.9901 33.99H24.9901C26.0901 33.99 26.9901 33.09 26.9901 31.99V31.39C27.6678 31.1019 28.3063 30.7289 28.8901 30.28L29.4201 30.59C30.3701 31.14 31.6001 30.81 32.1501 29.86L33.1501 28.13C33.7001 27.17 33.3701 25.95 32.4201 25.4ZM29.8301 22.62C29.9401 23.07 30.0001 23.54 30.0001 24C30.0001 24.46 29.9401 24.92 29.8301 25.38C29.777 25.591 29.7942 25.8135 29.879 26.0138C29.9638 26.2141 30.1117 26.3813 30.3001 26.49L31.4201 27.14L30.4201 28.87L29.2801 28.21C28.9001 27.99 28.4101 28.05 28.0901 28.35C27.4101 29 26.5801 29.48 25.7101 29.75C25.2901 29.88 25.0001 30.27 25.0001 30.71V32.01H23.0001V30.71C23.0001 30.27 22.7101 29.88 22.2901 29.75C21.4101 29.48 20.5901 29 19.9101 28.35C19.7538 28.2011 19.5539 28.1062 19.3397 28.0792C19.1256 28.0522 18.9084 28.0946 18.7201 28.2L17.5801 28.86L16.5801 27.13L17.7001 26.48C18.0901 26.26 18.2801 25.8 18.1701 25.37C18.0601 24.92 18.0001 24.45 18.0001 23.99C18.0001 23.53 18.0601 23.06 18.1701 22.61C18.2231 22.399 18.2059 22.1765 18.1211 21.9762C18.0363 21.7759 17.8885 21.6087 17.7001 21.5L16.5801 20.85L17.5801 19.12L18.7201 19.78C19.1001 20 19.5901 19.94 19.9101 19.64C20.5901 18.99 21.4201 18.51 22.2901 18.24C22.7101 18.11 23.0001 17.72 23.0001 17.28V15.98H25.0001V17.28C25.0001 17.72 25.2901 18.11 25.7101 18.24C26.5901 18.51 27.4101 18.99 28.0901 19.64C28.4101 19.95 28.9001 20 29.2801 19.78L30.4201 19.12L31.4201 20.85L30.3001 21.5C29.9101 21.72 29.7201 22.18 29.8301 22.61V22.62Z" fill="#0E3B6A"/>
</svg>
